<svg xmlns="http://www.w3.org/2000/svg" width="32" height="48" viewBox="0 0 32 48">
  <g id="_" data-name="▼" transform="translate(-1254 -7149)">
    <path id="多角形_19" data-name="多角形 19" d="M14.438,1.952a2,2,0,0,1,3.123,0L29.4,16.751A2,2,0,0,1,27.839,20H4.161A2,2,0,0,1,2.6,16.751Z" transform="translate(1286 7169) rotate(180)" fill="#41c3de"/>
    <path id="多角形_20" data-name="多角形 20" d="M14.438,1.952a2,2,0,0,1,3.123,0L29.4,16.751A2,2,0,0,1,27.839,20H4.161A2,2,0,0,1,2.6,16.751Z" transform="translate(1286 7197) rotate(180)" fill="#41c3de"/>
  </g>
</svg>
