<svg xmlns="http://www.w3.org/2000/svg" xmlns:xlink="http://www.w3.org/1999/xlink" width="145" height="82" viewBox="0 0 145 82">
  <defs>
    <clipPath id="clip-path">
      <rect id="長方形_13053" data-name="長方形 13053" width="145" height="82" transform="translate(496 4440.866)" fill="#fff" stroke="#707070" stroke-width="1"/>
    </clipPath>
  </defs>
  <g id="ill_チェック結果01" transform="translate(-496 -4440.866)">
    <g id="マスクグループ_77" data-name="マスクグループ 77" clip-path="url(#clip-path)">
      <g id="グループ_15979" data-name="グループ 15979" transform="matrix(-0.259, 0.966, -0.966, -0.259, 562.844, 4455.703)">
        <path id="パス_84511" data-name="パス 84511" d="M149.444,36.032h0c5.811,2.933,11.185,6.817,13.335-2.23,1.53-3.486,1.057-7.239-.157-10.735-.6-2.536-1.084-4.679-3.99-5.294a9.7,9.7,0,0,0-4.693-.072,10.319,10.319,0,0,0-3.158.48,6.344,6.344,0,0,1-3.952-.756c.535-2.151,2.4-3.344,3.618-5.071C152.283,9.664,154,5.781,151.1,3.2c-1.076-2.018-2.884-2.337-4.8-2.179-3.814-2.074-8.921-.508-12.907.544-2.759.761-5.61,1.191-8.311,2.152-4.016,1.39-2.833,2.9-2.453,6.361.545,4.24.71,8.875,3.639,12.276-18.2-4.425-22.244,3.421-11.978,18.2a6.651,6.651,0,0,0,1.649.861c5.021,11.531,8.975,1.26,13.094-3.786-1.612,6.251-4.46,14.965,3.539,14.762a15.576,15.576,0,0,0,1.775-.131c.731,1.383,1.751,2.554,3.342,2.687,4.982-.255,9.669-2.983,13.167-6.426,6.9-4.976,1.628-7.584-1.412-12.488" transform="translate(-87.353 -0.002)" fill="#fff"/>
        <path id="パス_84514" data-name="パス 84514" d="M171.238,53.16c6.9-4.976,1.628-7.584-1.412-12.488h0c5.811,2.933,11.185,6.817,13.335-2.23,1.529-3.486,1.057-7.239-.158-10.735-.6-2.536-1.084-4.679-3.99-5.294-3.9-1.29-8.2,1.824-11.8-.348.535-2.151,2.4-3.344,3.618-5.071,1.834-2.692,3.556-6.575.652-9.155-1.784-3.346-5.582-2.023-8.545-1.6-1.844.278-3.7.48-5.53.829-9.37,2.319-12.231,3.73-8.943,13.805.46,1.719.506,3.7,1.678,5.129-.069,1.7-1.974,1.032-3.1,1.132-2.289.17-4.544.691-6.845.759-9.442-1.443-6.763,9.894-4.958,15.387,7.011,19.963,11.907-3.567,17.745-3.432.932,4.633-.136,9.514.565,14.189.782,2.167,1.846,5.32,4.518,5.544,4.982-.255,9.669-2.983,13.167-6.426" transform="translate(-107.735 -4.642)" fill="#fec1ae"/>
        <path id="パス_84517" data-name="パス 84517" d="M160.059,28.282c-.41-9.48-3.584-13.262-13.015-8.6-2.877,1.247-5.5,2.5-6.946,1.846a0,0,0,0,1,0,0c1.046-6.745,13.241-12.264,7.724-19.414-3.881-3.624-9.885-1.755-14.43-.556-2.759.761-5.61,1.191-8.31,2.152-4.016,1.39-2.834,2.9-2.453,6.361.545,4.24.71,8.875,3.639,12.276-18.2-4.425-22.244,3.421-11.978,18.2,6.587,4.6,9.524-6.528,15.52-6.806-.427,5.494-7.135,18.894,2.761,18.644,2.656-.031,5.221-.884,7.845-1.214,2.383-.528,7.089-.1,8.145-2.774,1.055-5.625-1.086-11.551-4.918-15.706,3.019,2.786,7.515,2.014,11.285,2.7,6.35.8,5.2-2.332,5.129-7.116m-3.321,6.365c-3.508-.326-7.122-.424-10.545-1.3-1.811-.792-3.036-2.466-4.683-3.543-.3-.174-.65-.46-1.009-.3-.851.778.783,1.758,1.212,2.394,4.284,4.158,7.553,10.7,5.775,16.681-1.553,1.476-4.212,1.215-6.216,1.607-6.086.9-15.6,4.341-12.819-6,.905-3.1,1.265-6.379,2.05-9.518.716-2.42-.538-1.826-2.011-1.551-2.9.718-4.847,3.184-6.779,5.3-6.351,6.477-9.179-1.8-11.343-6.968-.991-3.225-1.4-8.183,2.958-8.8,4.228-1.4,11.425-.4,15.286,1.751,1.823.45,2.6-1.658.772-.871-6.123-2.853-5.36-11.39-6.322-17.183.77-2.611,8.125-2.961,10.575-3.953,4.6-1.363,13.877-3.688,14.787,3.223-.716,6.437-8.425,9.7-9.192,16.176,4.089,3.781,15.018-8.5,18.622-.608,1.272,3.255,1.358,6.825,1.43,10.279.049,2.186-.039,3.192-2.55,3.185" transform="translate(-87.353 0)" fill="#282828"/>
      </g>
      <g id="グループ_15980" data-name="グループ 15980" transform="matrix(-0.259, 0.966, -0.966, -0.259, 667.574, 4460.847)">
        <path id="パス_84512" data-name="パス 84512" d="M37.964,298.317a4.21,4.21,0,0,0-.829-.256,10.2,10.2,0,0,0-2.683-1.556,13.649,13.649,0,0,0-2.241-.544c1.6-.673,3.536-.954,4.789-2.12,2.549-1.822,1.562-3.343.907-5.867a8.722,8.722,0,0,0-5.589-6.3,4.149,4.149,0,0,0-2.653.064,21.6,21.6,0,0,0-3.372-2.631c-1.883-.182-5.265,5.042-7.166,8.985-.316-2.065-.044-4.59-2.2-5.567a4.162,4.162,0,0,0-2.79-.114c-1.666-2.106-4.168-3.1-6.666-.646C4.643,284.41.465,286.649.036,290.882c-.5,5.479,4.493,7.669,9.127,7.216a5.871,5.871,0,0,0,2.264.934c-1.629,2.763-4.608,4.5-7.164,6.368-3.737,3.38-.876,6.925,2.644,8.881,3.149,3,9.057,4.662,13.245,5.474,2.747.095,4.413-3.273,4.611-5.646,0-2.59-1.664-5.058-1.16-7.687C36.57,326,48.673,302.114,37.964,298.317" transform="translate(0 -224.172)" fill="#fff"/>
        <path id="パス_84516" data-name="パス 84516" d="M58.327,308.04c-2.568-1.107-5.644.782-8.012-.481,1.312-2.526,5.053-2.137,7.049-3.995,2.549-1.822,1.562-3.343.907-5.867a8.722,8.722,0,0,0-5.589-6.3c-5.3-1.746-11.036,9.209-13,7.308-.644-2.163.087-5.334-2.391-6.458-3.076-1.461-8.857,2.819-10.4,5.39-.956,2.522-2.829,5.621-.152,7.772,1.518,1.573,3.974,3.852,6.33,3.3.575,1.086-.722,1.97-1.169,2.877-2.193,3.528-6.108,7.787-4.871,12.182,3.081,3.143,9.195,4.871,13.49,5.7,2.747.095,4.413-3.273,4.611-5.646,0-2.59-1.664-5.058-1.16-7.687,12.968,19.576,25.071-4.308,14.362-8.105" transform="translate(-20.363 -233.895)" fill="#fde67c"/>
        <path id="パス_84518" data-name="パス 84518" d="M34.452,296.505c-2.927-1-6.124-.726-9.148-1.246.856-4.027,14.528,1.321,6.764-10.963a24.825,24.825,0,0,0-5.777-5.186c-2.635-.254-8.207,10.076-8.544,12.67-2.026-1.151-1.191-4.346-2-6.262-1.145-3.747-4.715-7.247-8.273-3.751C4.642,284.41.464,286.65.035,290.883c-.617,6.718,7.036,8.494,12.149,6.511-1.264,3.773-4.893,5.792-7.922,8.007-4.851,4.387,1.412,9.056,5.808,10.161,13.769,6.742,8.815-7.392,11.919-15,1.883,4.6,4.53,10.548,10.229,10.893,2.492.335,5.046.587,6.106-2.238,2.414-5.251,2.015-10.323-3.871-12.71m4.186,8.2c-.466,3.349-1.6,6.972-5.757,5.856-3.493.036-6.048-2.642-7.753-5.453-2.2-4.633-3.518-9.572-5.125-.952-.73,3.163.736,12.278-3.933,12.1-3.876-.39-14.442-3.612-12.21-8.99,2.006-2.45,5.34-3.538,7.264-6.132.717-1,3.548-4.494.977-4.7-5.361,2.062-13.081-.1-10.667-7.14.91-2.115,2.882-3.5,4.565-4.983,4.793-4.957,7.418-3.394,9.121,2.813.284,2.035.18,4.84,2.5,5.681-.213,1.068,1.083,1.646,1.017.388,1.481.639,1.42-.865.034-1.02-.157-1.685,6.257-13.307,7.792-11.883,3.169,2.619,6.584,5.585,7.018,9.958-.125,2.09-4.843,2.256-6.446,2.539-2.255-.13-4.253,3.643-.949,3.6,5.329.091,13.709,1.061,12.557,8.327" transform="translate(0.001 -224.172)" fill="#282828"/>
      </g>
      <g id="グループ_15981" data-name="グループ 15981" transform="translate(-14804.065 9880.079) rotate(-19)">
        <path id="パス_84513" data-name="パス 84513" d="M305.155,308.017c.589-1.989,2.348,1.644,3.093,2.1.982-.183,1.252,1.429,2.33,1.679.66-.467,3.017.487,3.259,1.249a7.451,7.451,0,0,0,.754.057c.223-.625,1.124-.439,1.654-.559.649,0,1.769-.3,2.034.5a2.451,2.451,0,0,0,.289-.035c-.3-.915,1.542-1.475,1.894-.632.089-.021.178-.042.266-.065.1-.536.788-.7,1.26-.75.574-.1,1.075-.827,1.563-1.1-1.946-.178-4.531,1.371-6.04-.222-1.8-3.4-2.318-10.819,2.943-10.317a14.913,14.913,0,0,1,6.568,1.911h0c-.367-1.848-1.709-3.423-1.9-5.311.846-4.213,7.6-4.825,10.393-2.209,2.864,1.127,2.87,4.788,1.605,7.122-.8,1.341-1.834,2.643-1.784,4.283,1.252,1.823,6.646-1.286,8.432,1.179,1.949,2.941-.73,12.631-5.3,13.6-2.138-.195-3.038-3.2-4.644-4.47v0c-.666,2.367,2.657,7.862-.85,8.388a33.18,33.18,0,0,1-8.281-1.7.878.878,0,0,0,.049-.183,4.528,4.528,0,0,1-3.178-2.2c-2.751-2.984,1.7-5.786,3.351-8.085a.955.955,0,0,1,.33-.812,2.357,2.357,0,0,0-.387-.439c-.842,1.029-1.626,2.133-3.06,2.326q.156-.249.325-.489h0c-5.509,2.56-12.991,1.389-16.337-4.1-.518.129-.7-.314-.63-.714" transform="translate(16011.206 -373.67)" fill="#fff"/>
        <path id="パス_84515" data-name="パス 84515" d="M309.343,299.927a14.913,14.913,0,0,1,6.568,1.911h0c-.367-1.848-1.709-3.423-1.9-5.311.846-4.213,7.6-4.825,10.393-2.209,2.864,1.127,2.87,4.788,1.605,7.122-.8,1.341-1.834,2.643-1.784,4.283,1.252,1.823,6.646-1.286,8.432,1.179,1.949,2.941-.73,12.631-5.3,13.6-2.138-.195-3.038-3.2-4.644-4.47v0l0,0c-.666,2.366,2.657,7.862-.85,8.388a33.188,33.188,0,0,1-8.281-1.7.877.877,0,0,0,.049-.183,4.528,4.528,0,0,1-3.178-2.2c-2.751-2.984,1.7-5.786,3.351-8.085a.954.954,0,0,1,.33-.812c-1.761-2.563-5.713.942-7.735-1.191-1.8-3.4-2.318-10.82,2.943-10.317" transform="translate(16022.317 -373.67)" fill="#7dd0fc"/>
        <path id="パス_84519" data-name="パス 84519" d="M401.1,367.9c.589-1.989,2.348,1.645,3.093,2.1.982-.183,1.252,1.429,2.33,1.679.66-.467,3.017.487,3.259,1.249a7.45,7.45,0,0,0,.754.057c.223-.625,1.124-.439,1.654-.559.649,0,1.769-.3,2.034.5a2.451,2.451,0,0,0,.289-.035c-.3-.915,1.542-1.475,1.894-.632.089-.021.178-.042.266-.065.1-.536.788-.7,1.26-.75.788-.142,1.438-1.458,2.109-1.161l0,0h0c.25-.291.5-.584.739-.881l.3.312-.045-.046c.034.036.07.071.1.107l-.029-.03c.015.014.029.03.044.045l-.009-.008c.11.11.218.225.325.336-1.156,1.162-1.93,2.844-3.733,3.087q.156-.249.325-.489h0c-5.508,2.56-12.991,1.389-16.337-4.1-.518.129-.7-.314-.63-.714" transform="translate(15915.258 -433.549)" fill="#282828"/>
      </g>
    </g>
  </g>
</svg>
