<svg xmlns="http://www.w3.org/2000/svg" width="104.462" height="169.999" viewBox="0 0 104.462 169.999">
  <g id="ill_本人のチェックリスト" transform="translate(-43.539 0)">
    <path id="パス_84039" data-name="パス 84039" d="M82.826,0,94.637,3.172l8.085,4.461,6.412,6.97,5.019,6.413,4.74,10.315v8.922L116.941,47.5l-4.74,4.74-1.394-6.691-2.788-8.922-2.23-5.3-8.643-6.413H89.061L77.63,26.592H69.824l-4.461-1.673-2.788,6.413-2.788,5.3V47.5l5.576,16.171-2.788,2.788L50.586,54.751,46.962,36.629l3.625-14.5,7.249-10.874L68.43,3.172Z" fill="#b9bec2"/>
    <path id="パス_84038" data-name="パス 84038" d="M66.178,25.477l6.712,1.115,11.152-1.115,8.364-1.394,8.643,2.509,4.182,4.182,3.067,6.413,2.788-2.23,3.346,2.23V43.32l-3.346,1.673,1.115,7.527-2.788,6.97-4.182,5.855-4.182,2.788v2.509l1.394,1.673h2.788l3.067,3.346,1.115,88.38-8.364-3.624L89.9,158.466l-6.97-4.182-3.345-6.134,4.46-49.069L71.775,97.687l-1.952-8.643L66.178,80.4l-1.931-9.758,3.067-7.806H64.248l-1.115-3.346L59.508,58.1l-3.624-3.346L57,50.29,60.9,48.9,59.508,41.09,60.9,33l3.346-5.3Z" fill="#fff"/>
    <path id="パス_84018" data-name="パス 84018" d="M228.37,111.7c6.735-.238,6.746-8.616-.253-8.176a3.24,3.24,0,0,0-2.555,3.015,3.989,3.989,0,0,0,.113,3.026,4.061,4.061,0,0,0,2.695,2.134" transform="translate(-125.418 -57.616)" fill="#fde67c"/>
    <path id="パス_84019" data-name="パス 84019" d="M150.392,204.98c-.178-2.259.978-5.484-1.18-7.023a1.656,1.656,0,0,0-2.314.63,20.688,20.688,0,0,0-2.8-.29,35.947,35.947,0,0,1-3.545-.833c-2.357-.355-4.736-.482-7.085-.971a11.8,11.8,0,0,1-.685-3.692,14.679,14.679,0,0,0-1.965-5.112,22.493,22.493,0,0,0-3.863-4.4,1.317,1.317,0,0,0,.009-1.13,1.4,1.4,0,0,0-1.839-.7,49.712,49.712,0,0,0-5.106,4.048c-1.807.8-2.978,2.51-4.022,4.117-3.477,1.122-3.419,5.582-5.136,8.211-.962,2.127-1.558,4.4-2.368,6.588-.322,1.049-1.134,2.487-.052,3.352-.335,2.961-1.124,6.262-.077,9.128a17.179,17.179,0,0,0,.746,6.412c.026,1.178.428,2.342.152,3.5a14.609,14.609,0,0,0,.995,5.688,11.8,11.8,0,0,0,1.771,7.88,25.036,25.036,0,0,0,2.039,4.587c-.464,2.33-.056,4.592-.376,7.07-.661.236-.926,1.578-.9,2.875,8.363,7.529,21.335,8.861,31.96,5.45,0-.494,0-1-.02-1.514-.14-1.263.112-2.71-.527-3.846a64.033,64.033,0,0,0-.211-6.827,1.3,1.3,0,0,0,.421-1.582,7.771,7.771,0,0,0,1.152-3.709,21.177,21.177,0,0,0,1.5-7.761c1.386-3.634,1.556-7.517,2.259-11.3a84.627,84.627,0,0,0,1.309-13.422,24.447,24.447,0,0,1-.241-5.434" transform="translate(-60.026 -100.94)" fill="#fde67c"/>
    <path id="パス_84020" data-name="パス 84020" d="M271.154,230.453a9.767,9.767,0,0,0-.417-4.366,2.119,2.119,0,0,1,.03-1.234,14.607,14.607,0,0,0-.475-6.771,71.607,71.607,0,0,1-2.551-8.226c-.393-3.311-.891-7.269-3.715-9.429-.929-2.141-1.238-4.787-3.1-6.371a1.419,1.419,0,0,0-.223-.134,8.264,8.264,0,0,0-3.226-4.377c-1.989-2.342-4.044-5.539-7.413-5.72-1.044-1.56-2.882-3.932-4.977-2.763-.565-.346-1.137-.681-1.712-1.012a1.425,1.425,0,0,0-1.18-1.825,75.365,75.365,0,0,0-7.579-2.578,1.524,1.524,0,0,0-1.351-.606,1.724,1.724,0,0,0-2.259-.7c-1.12.748-.537,2.28-.761,3.406a24.708,24.708,0,0,1-.789,4.3c-2.228-.451-2.948,4.235-1.824,5.476-.1.313-.206.625-.32.937-.1.221-.2.438-.31.651-1.772-.625-2.241,1.79-3.19,2.772-3.408.3-2.051,4.285-1.777,6.515-.069,1.966-.468,4.452.944,6.031q.057,1.231.058,2.462c-.565,1.378-1.315,4.958.834,5.256.058.593.107,1.184.127,1.779.023.759.036,1.515.034,2.274-1.855.522-1.21,3.324-.131,4.336a20.893,20.893,0,0,1,.26,3.821c-2.055.3-1.163,3.879-.391,5.052.03.312.062.625.067.937q.011.609.024,1.218c-1.631.787-.744,3.214-.671,4.641a15.96,15.96,0,0,1-.023,3.836c-.266.722.039,1.527-.273,2.245a1.417,1.417,0,0,0,.356,2.224c-.292,1.315.743,2.521.786,3.832-.662,1.174-.06,2.7-.176,4.007.019,1.236.049,2.474.006,3.711a1.339,1.339,0,0,0-1.281.729c-.5,1.4-.088,3.013-.148,4.487.1,1.388.14,2.812.3,4.213,12.1,3.207,27.59.9,38.223-5.169,0-.171,0-.341,0-.512a10.315,10.315,0,0,0,3.01-2.317c1.65-.654,2.517-2.377,3.318-3.857,1.335-3.015,3.329-5.789,3.612-9.184a27.243,27.243,0,0,0,.015-7.087,22.175,22.175,0,0,0,.239-6.9" transform="translate(-123.316 -96.928)" fill="#fde67c"/>
    <path id="パス_84021" data-name="パス 84021" d="M151.5,131.426c-4.729-1.713-1.116-7.907,2.89-6.412,5.221,2.216,1.89,8.242-2.89,6.412" transform="translate(-83.083 -69.458)" fill="#fde67c"/>
    <path id="パス_84022" data-name="パス 84022" d="M205.507,243.269a2.1,2.1,0,0,0-2.217-1.173,1.271,1.271,0,0,0-.622.5c-.1.31.069.914-.028,1.227-.039.127-.343-.037-.382.09a.493.493,0,0,0-.074.617,2.565,2.565,0,0,0,2.29,1.076,2.543,2.543,0,0,0,.653-.7,2.663,2.663,0,0,0,.38-1.639" transform="translate(-112.5 -134.724)" fill="#333"/>
    <path id="パス_84023" data-name="パス 84023" d="M201.89,282.707a1.419,1.419,0,0,0-.868.233c-.853-.191-1.813.313-1.2,1.4.006.037.012.074.019.109a1.352,1.352,0,0,0,.673,1.051,1.049,1.049,0,0,0,.27.094c.3,2.824,3.784-2.393,1.11-2.889" transform="translate(-111.118 -157.362)" fill="#333"/>
    <path id="パス_84024" data-name="パス 84024" d="M175.154,126.648c-.6.174-.556.854-.379,1.331a2.755,2.755,0,0,1,.012,1.467.712.712,0,0,0-.7.584c-.23.374-.559.675-.818,1.029a3.333,3.333,0,0,0-.312,2.785.69.69,0,0,0,1.266-.548,2.017,2.017,0,0,1,.622-1.957c1.407-.292,1.6-2.479,1.3-3.639.266-.585-.4-1.206-.986-1.051" transform="translate(-96.175 -70.482)" fill="#333"/>
    <path id="パス_84025" data-name="パス 84025" d="M196.091,137.653a2.635,2.635,0,0,0-1.536.281c-.631.069-1.257.866-1.117,1.279a.215.215,0,0,0,.019.034,1.272,1.272,0,0,1-.084.146c-.077.145.031.31.259.35.354.054.46-.163.559-.362a.293.293,0,0,0,.252-.23c.251-.109.209-.352-.04-.457a.493.493,0,0,0,.631-.349.874.874,0,0,1,.474-.164,1.011,1.011,0,0,0,.928.009.961.961,0,0,0,.692.067c.383.041.509.373.884.393.329,0,.487-.285.257-.44a3.215,3.215,0,0,0-2.179-.557" transform="translate(-107.065 -76.39)" fill="#333" stroke="#333" stroke-width="0.5"/>
    <path id="パス_84026" data-name="パス 84026" d="M217.726,121.6a6.04,6.04,0,0,0-1.95-1.531,6.02,6.02,0,0,1-1.027-1.511.716.716,0,0,0-1.272-.372c-.679.732,1.621,3.666,2.447,3.614a5.746,5.746,0,0,1,1.148,1.178.838.838,0,0,0,.779.426,4.395,4.395,0,0,1,.476,1.211,1.618,1.618,0,0,0,.22,1.368c-.122.527-.182,1.221.517,1.319,1.984.031.2-5.809-1.337-5.7" transform="translate(-118.758 -65.633)" fill="#333"/>
    <path id="パス_84027" data-name="パス 84027" d="M191.991,109.6a2.539,2.539,0,0,0,1.19-.571.709.709,0,0,0-.423-1.109,2.174,2.174,0,0,0-1.346.326c-.287-.107-.553.073-.814.17a2.228,2.228,0,0,1-1.819.043c-.022-.173-.033-.35-.046-.524,0-.012,0-.024,0-.036h0v0c.227-.462,0-1.009-.017-1.5a2.675,2.675,0,0,0,.094-1.8c.307-.8-.186-4.266-1.313-4.195a.711.711,0,0,0-.66.892,5.666,5.666,0,0,1,.579,1.726c-.732.332-.445,1.284.01,1.74.006.034.011.067.016.1-.544.515-.054,1.356-.069,2a2.85,2.85,0,0,0-.016,1.183c.022.672.1,1.446.853,1.67a3.385,3.385,0,0,0,2.506.12,3.073,3.073,0,0,0,1.28-.23" transform="translate(-103.985 -55.886)" fill="#333"/>
    <path id="パス_84028" data-name="パス 84028" d="M153.6,74.872a.642.642,0,0,0,.135.462,1.167,1.167,0,0,0-.438,1.921.965.965,0,0,0-.514.015.932.932,0,0,0-.627.642c-.828.114-.923,1.194-.521,1.773a.922.922,0,0,0,1.044.385c.7-.225.953-.981,1.36-1.5A4.734,4.734,0,0,0,155,74.512a.727.727,0,0,0-1.405.36" transform="matrix(-0.848, -0.53, 0.53, -0.848, 158.131, 182.435)" fill="#333"/>
    <path id="パス_84029" data-name="パス 84029" d="M209.819,64.16a2.932,2.932,0,0,0,1.241.531c.568.1,1.412.293,1.783-.288a.768.768,0,0,0-.655-1.112.7.7,0,0,0-.791.048,20.063,20.063,0,0,1-1.95-.919.774.774,0,0,0-.745-.132c-.093-.146-.18-.294-.262-.447l-.077-.16a.821.821,0,0,0-1.186-.759c-.774.53.019,1.473.331,2.059.492.663,1.419,1.857,2.311,1.178" transform="translate(307.016 -25.303) rotate(149)" fill="#333"/>
    <path id="パス_84030" data-name="パス 84030" d="M214.91,82.606c-1.362-.369-3.339-.071-3.58,1.57a1.3,1.3,0,0,0,.5,1.717,2.131,2.131,0,0,0,1.035.771,2.083,2.083,0,0,0,1.487-.168c.685.021,1.617-.18,1.79-.96.294-1.351.524-2.671-1.229-2.929m-.983,2.3c-.049.008-.1.015-.147.021-.023,0-.045,0-.067,0a.374.374,0,0,1-.129-.033,1.431,1.431,0,0,1,.4,0l-.059.015" transform="translate(-117.554 -45.902)" fill="#333"/>
    <path id="パス_84031" data-name="パス 84031" d="M166.818,96.653c-1.164-.031-3.2-.082-3.425,1.4.066.727-.271,1.542.213,2.177a3.043,3.043,0,0,0,1.656,1,1.773,1.773,0,0,0,1.051-.251c1.661.2,2.19-.769,2.345-2.259a2.186,2.186,0,0,0-1.84-2.078" transform="translate(-90.92 -53.794)" fill="#333"/>
    <path id="パス_84032" data-name="パス 84032" d="M154.922,26.648a32.309,32.309,0,0,0,3.215,1.638,5.718,5.718,0,0,0,2.818,1.746,11.02,11.02,0,0,0,4.867,1.315,16.9,16.9,0,0,0,3.651.965,4.277,4.277,0,0,1,1.375.223,8.545,8.545,0,0,0,3.666.584,15.113,15.113,0,0,0,2.294.384.872.872,0,0,0,.6-.139,3.548,3.548,0,0,0,2.546-.534.688.688,0,1,0-.765-1.142,2.883,2.883,0,0,1-2.615.126.742.742,0,0,0-.9.18c-.973.069-2.184-1.52-2.9-.35-.487-.114-.967-.247-1.448-.39l-.166-.057a2.282,2.282,0,0,0-1.157-.679c-.476-.19-1.122-.3-1.384.262-.709-.173-1.4-.4-2.093-.642A1.308,1.308,0,0,0,165,29.912c-.294-.03-.584-.072-.877-.125s-.57-.141-.851-.231c.018-.765-1.914-1.69-2.439-1.061l-.218-.1c-.264-.131-.527-.262-.78-.414.309-.791-.647-1.369-1.323-1.04-.129-.057-.257-.116-.384-.175a32.227,32.227,0,0,1-2.928-1.595c.1-1.165-1.811-.9-1.7.121.133.691.894.99,1.418,1.351" transform="translate(-85.442 -13.588)" fill="#333"/>
    <path id="パス_84033" data-name="パス 84033" d="M181.294,22.663c.837.231,1.692.4,2.542.58,1.665.418,3.375.438,5.043.759,1.293.148,2.517.661,3.823.733a.68.68,0,0,0,.677-.677c-.055-.95-1.245-.6-1.875-.858-.255-.388-.747-.467-1.155-.616-.49-.145-1.159-.419-1.559.04-.916.013-2.208-1.3-2.9-.384-1.223-.2-2.431-.474-3.639-.748-.318-.908-1.942-.312-1.676.58a.953.953,0,0,0,.72.591" transform="translate(-100.497 -11.711)" fill="#333"/>
    <path id="パス_84034" data-name="パス 84034" d="M202.955,208.388c1.746.133.989-3.745-1.107-2.745a1.24,1.24,0,0,0-.5,1.469.883.883,0,0,0-.137.195.87.87,0,0,0-.082,1.393,1.189,1.189,0,0,0,1.831-.311" transform="translate(-111.78 -114.375)" fill="#333"/>
    <path id="パス_84035" data-name="パス 84035" d="M199.238,132.36c-.031-.416.031-.928-.287-1.238a48.912,48.912,0,0,0-1.244-9.417,43.145,43.145,0,0,0-1.069-7.241,7.392,7.392,0,0,0-.278-2.714,11.454,11.454,0,0,0-1.018-2.688,18.2,18.2,0,0,0-1-3.075,7.816,7.816,0,0,0-.3-2.349,18.6,18.6,0,0,0-1.09-2.782,6.8,6.8,0,0,0-.548-1.728.61.61,0,0,0-.005-.09c-.375-.991-.8-1.974-1.231-2.946a25.857,25.857,0,0,0-3.407-4.956,34.139,34.139,0,0,0-3.844-5.067,6.536,6.536,0,0,0-1.359-1.856,21.142,21.142,0,0,0-1.687-1.607,38.761,38.761,0,0,1-3.429-2.419c-1.077-.714-2.1-1.486-3.183-2.181-1.365-.726-2.814-1.277-4.222-1.9-1.5-.418-2.933-1.5-4.567-1.161a3.343,3.343,0,0,0-1.821-.094c-.083.014-.17.031-.257.051-.217-.132-.451-.255-.681-.389-.411-.256-.5-.64-.872-1-.479-.5-1.05-.881-1.57-1.327a3.476,3.476,0,0,0-1.891-1.082,4.678,4.678,0,0,0-1.247.3.675.675,0,0,0-.137-.089,2.766,2.766,0,0,1-.25-.331c-.113-.361-.047-.834-.445-1.045a2.673,2.673,0,0,1,.1-.367,3.645,3.645,0,0,1,.486-.734c.768-.444,1.768-.97,2.055-1.861a15.677,15.677,0,0,0,2.043-2.318,4.911,4.911,0,0,0,1.809-2.3,20.687,20.687,0,0,0,1.832-3.411,6.721,6.721,0,0,0,1.4-3.009,8.779,8.779,0,0,0,.925-2.569.694.694,0,0,0,.663-.305,6.316,6.316,0,0,0,1.911-1.522c.2-.21.5-.263.7-.484a2.608,2.608,0,0,0,.624-1.211,5.057,5.057,0,0,0,1.173-1.516,2.636,2.636,0,0,0,.578-1.4,4.945,4.945,0,0,0,.337-.454,3.261,3.261,0,0,0,.649-1.593,2.7,2.7,0,0,0,.576-2.61,4.52,4.52,0,0,0,.489-2.7,5.258,5.258,0,0,0-.274-3.434c.585-1.539.074-3.21-.356-4.724-.152-.344-.277-.911-.477-1.4a6.532,6.532,0,0,0-.265-1.571,48.494,48.494,0,0,0-1.9-4.534,26.33,26.33,0,0,0-2.258-4.058,11.571,11.571,0,0,0-2.458-3.71c-.384-.342-.778-.9-1.24-1.242a3.355,3.355,0,0,0-.253-.416,15.441,15.441,0,0,0-2.2-2.347,52.919,52.919,0,0,0-5.913-5.286,13.33,13.33,0,0,0-2.084-1.191A13.976,13.976,0,0,0,153.417,4.6a3.14,3.14,0,0,0-1.991-1.083c-1.119-1.065-2.792-1.288-4.254-1.593A11.313,11.313,0,0,0,143.541.742c-1.109-.817-2.634-.613-3.934-.592A30.443,30.443,0,0,0,134.381.1a8.4,8.4,0,0,0-.837-.1,20.326,20.326,0,0,0-7.969,2.01A12.683,12.683,0,0,0,121.908,3.4c-1.643.736-4.211,1.5-4.832,3.356a24.554,24.554,0,0,0-3.353,2.731c-.249.237-.594.535-.9.864l-.008.007a23.767,23.767,0,0,0-2.112,1.773,16.845,16.845,0,0,0-3.265,4.611,18.628,18.628,0,0,0-2.788,4.47c-.473,1.9-1.016,2.971-1.589,5.135a8.11,8.11,0,0,0-.562,2.962c-.167.681-.314,1.37-.527,2.032-.133.732-.591,1.542-.376,2.282a17.406,17.406,0,0,0-.3,3.773c-.145,1.386-.377,3.026.285,4.3.035.393.076.809.141,1.283a3.739,3.739,0,0,0-.032,1.251,8.038,8.038,0,0,0,.255,1.376,6.951,6.951,0,0,0,.334,2.515c.494,1.94,1.295,3.8,1.957,5.69a6.786,6.786,0,0,0,1.47,2.623,7.366,7.366,0,0,0,2.055,2.37,6.113,6.113,0,0,0,1.359,1.49,9.8,9.8,0,0,0,2.4,2.475,3.333,3.333,0,0,0,2.023,1.267,4.425,4.425,0,0,0,.381.247q.141.081.283.157a3.747,3.747,0,0,0,1.637,1.413,5.1,5.1,0,0,0,1.687,1.246.919.919,0,0,0,.7-.039.64.64,0,0,0,.824-.164c.006.007.009.015.016.022-.176.637-.353,1.271-.521,1.91a1.112,1.112,0,0,0,.008.822c-.247,1.265.227,2.489.069,3.742a6.907,6.907,0,0,0,.3,2.967h0c.027.19.059.38.089.569-.535.227-1.044.612-1.531.856-2.958.22-5.03,2.544-7.237,4.239a33.741,33.741,0,0,0-4.244,4.2c-.628.838-1.085,1.763-1.8,2.544-.571.74-1.107,1.513-1.644,2.278-.335.438-.73,1.055-.3,1.558a28.1,28.1,0,0,0-3.031,7.648c-.17,1.27-.474,2.524-.522,3.812a2.037,2.037,0,0,0,.174,1.228,78.7,78.7,0,0,0-.406,9.763,12.338,12.338,0,0,0-.1,4.845,6.089,6.089,0,0,0-.107,1.776c.111,1.3.233,2.58.217,3.878.168,1.887.806,3.688,1.061,5.559.691,2.388,1.293,4.776,1.828,7.2a28.062,28.062,0,0,0,2.12,5.12,4.529,4.529,0,0,0-.035.545c-.017.669,1.357,2.686,1.362,2.163a.568.568,0,0,0,.06.008,5.617,5.617,0,0,0,2.255,3.877,6.3,6.3,0,0,0,2.281,2.9,4.13,4.13,0,0,0,3.138,2.09,6.206,6.206,0,0,0,3.282,1.622,1.761,1.761,0,0,0,1.166-.02c.853.12,1.565.676,2.444.662a5.46,5.46,0,0,0,2.444-.511.925.925,0,0,0,.153.109,9.933,9.933,0,0,0,3.687-.352,10.3,10.3,0,0,0,4.921-2.952,2.71,2.71,0,0,0,.648-.686,9.669,9.669,0,0,0,2.577-3.142c.093-.142.181-.286.27-.43a19.1,19.1,0,0,0,.946,2.355,1.494,1.494,0,0,0-.043,1.075c.071.449,1.644,2.351,1.593,1.781a12.838,12.838,0,0,0,3.1,2.974,7.086,7.086,0,0,0,2.116.911,9.158,9.158,0,0,0,2.28,1.42.679.679,0,0,0,.653-.126A15.385,15.385,0,0,0,149.674,161c.033.223,1.613.289,1.556-.07a25.652,25.652,0,0,0,2.6-.126,2.452,2.452,0,0,0,.746.242c.078.009.164.016.256.022.022.47.047.94.072,1.409.1.591-.12,1.548.642,1.734a.566.566,0,0,0,.331-.019,5.66,5.66,0,0,0,.848.589,4.152,4.152,0,0,0,3.272.141,13.3,13.3,0,0,0,2.689.078,10.484,10.484,0,0,0,2.025-.327,7.882,7.882,0,0,0,3.079-.238c.845-.217,1.665-.519,2.487-.81a7.363,7.363,0,0,0,2.657-.472c1.821.461,3.628-.438,5.276-1.121a5.466,5.466,0,0,0,4.435-1.629,1.863,1.863,0,0,0,.694-.313c.551-.11,1.061-.262,1.328-.343.1-.044.194-.086.291-.129,0,.054,1.528-.329,1.315-.573a12.51,12.51,0,0,0,3.674-2.181,15.892,15.892,0,0,0,6.512-5.2c1.12.446,1.313-1.236.573-1.729a2.38,2.38,0,0,0,.108-.29,38,38,0,0,1,1.273-4.164,2.809,2.809,0,0,0,.2-1.48,56.811,56.811,0,0,0,.573-8.312,29.894,29.894,0,0,0,.049-3.33M156.46,73.295a.655.655,0,0,0,.066-.029,4.879,4.879,0,0,1,1.869-.818,16.081,16.081,0,0,1,2.58,2.065,4.106,4.106,0,0,0,1.705,1.516.705.705,0,0,0,.238.217c.008,1.306-1.043,2.191-1.727,3.233a6.44,6.44,0,0,1-1.856,2.411c-.835.353-1.521,1.086-2.384,1.44-.812-.843-1.55.532-2.349.74a1.41,1.41,0,0,0-1.356.443c-.286.072-.573.137-.862.2a.726.726,0,0,0-.267-.6,1.1,1.1,0,0,0-1.374.145,2.7,2.7,0,0,1-.911.043.985.985,0,0,0-1.272-1.093,1.936,1.936,0,0,1-.647-.615c.136-.56-.3-1.684-.981-1.661-.123-.4-.219-.8-.309-1.2-.065-.369-.12-.739-.168-1.111.65-.147,1.292-.4,1.919-.561a5.668,5.668,0,0,0,3.354-1.317c.674-.359,1.375-.66,2.059-1.006a14.6,14.6,0,0,0,2.674-2.436m2.658,15.041a8.186,8.186,0,0,1-1.392,2.767c-1.142-.733-1.842,1.051-1.71,1.97a7.393,7.393,0,0,1-2.05,1.364c-.609.113-1.574.56-1.118,1.312a8.275,8.275,0,0,1-2.051,1.116c-.665.029-1.131.939-.491,1.358.039.423.053.849.07,1.273-1.244.066-.5,2.071-.046,2.648a11.637,11.637,0,0,1,.335,1.869.811.811,0,0,0-1.225.208,2.05,2.05,0,0,0,1.011,2.294,9.644,9.644,0,0,1,.19.988s.009.089.018.177c-.488.255-.415.886-.383,1.351a2.063,2.063,0,0,0,.487,1.53c.043.4.082.806.107,1.21-.693-.063-.941.7-.81,1.268a2.022,2.022,0,0,0,.638,1.561,28.765,28.765,0,0,1,.291,6.105c-1.4-.266-.871,2.106-.489,2.79a16.849,16.849,0,0,1,.028,3.365c-.606-.1-.946.534-.833,1.061.036.49.063,1.112.508,1.42.036.231.069.462.1.693.068.627.122,1.25.151,1.878-.674-.036-.816.754-.7,1.288a2.536,2.536,0,0,0,.545,1.637c.011.069.021.137.031.206q.053.45.094.9c-.587.4-.2,1.258-.19,1.845.145,1.037.579,1.971.649,3.029-.8.355-.254,1.4-.294,2.067a27.319,27.319,0,0,1,.142,3.18.684.684,0,0,0-.491.242c-.213-.752-1.014-2.112-1.944-1.651a3.932,3.932,0,0,0-1.67-2.523l-.051-.1c-.078-.161-.161-.322-.237-.485.289-.3.165-.743.047-1.1-.065-.36-.113-.724-.162-1.085a15.638,15.638,0,0,1-.116-2.168,7.6,7.6,0,0,0-.85-2.8c.015-.829-.626-1.537-.995-2.247a33.342,33.342,0,0,0-3.78-4.775.732.732,0,0,0-.412-.54.855.855,0,0,0-.053-.088c.027-.116.051-.232.068-.35.116-.7.27-1.377.406-2.063a42.108,42.108,0,0,0,.344-5.6,42.625,42.625,0,0,1,.214-4.523c.125-.973-.264-1.914-.163-2.867a49.26,49.26,0,0,0,.4-8.084c-.106-.849.16-1.875-.356-2.607-.1-.778.017-1.695-.074-2.337a.826.826,0,0,0-.294-.381.629.629,0,0,0-.505-.525c-.071,0-.142.011-.213.015a1.116,1.116,0,0,0-.065-.724,9.472,9.472,0,0,1,.64-1.727c1.2-.548,1.432-2.045,1.691-3.269.649-.42.872-2.079.838-2.729.533-.558-.081-2.581-.6-4a3.815,3.815,0,0,0,.975-1.117,17.891,17.891,0,0,0,1.371-1.708,5.715,5.715,0,0,0,.668-1.63,5.421,5.421,0,0,0,.8,1.923c.559.761.971,1.667,1.907,2.062a2.171,2.171,0,0,0,2.4,1.171.828.828,0,0,0,.175.2c.7.529,1.637.23,2.416.082a8.342,8.342,0,0,0,2.754-1c1.062.2,2.037-.62,2.921-1.1.606-.005,1.01-.6,1.462-.937.263-.25.529-.5.783-.769a38.75,38.75,0,0,1-.861,3.8c-1.206-.3-1.443,1.65-1.009,2.394m-20.8,9.263c-.271.039-.543.075-.814.092a3.563,3.563,0,0,0-1.789-.3,1.383,1.383,0,0,0-.8.189c-.25-.883-1.337-.537-2.007-.477-.38.049-.851.077-1.081.427-.227.023-.454.045-.683.058-.133.008-.266.012-.4.015-.11-.581-.72-.588-1.195-.542s-1.008-.134-1.492-.1a5.769,5.769,0,0,0-.111-1.573c.314-.4.092-.963-.032-1.4a11.72,11.72,0,0,0-.924-2.278c-.478-.908-.824-1.887-1.382-2.757.072-.841-.813-1.437-1.223-2.1a2.966,2.966,0,0,0-.531-1.423c-.23-.35-.482-.781-.939-.828q-.08-.148-.157-.3-.134-.285-.258-.572c.724-.658-.147-2.824-1.147-2.709-.128-.413-.24-.83-.342-1.251-.018-.091-.035-.182-.052-.273a2.408,2.408,0,0,0,.4-1.572c.082-.637-.171-1.558-.982-1.4q-.029-.215-.055-.43a2.766,2.766,0,0,0-.184-2.7c.774-.563,1.08-2.835-.235-2.892a5.913,5.913,0,0,1,.416-2.082c.1-.463.444-.982.2-1.445.368-1.034.419-2.249,1.078-3.138a.668.668,0,0,0,.485-.118,1,1,0,0,1,.117.159,1.008,1.008,0,0,0,.2.838c.006.266-.012.536-.005.778-.02.386-.194,1.092.309,1.321a48.317,48.317,0,0,0,1.627,10.371.71.71,0,0,0,1.349-.2,16.14,16.14,0,0,1-.37-1.708,16.445,16.445,0,0,1-.511-2.428c-.247-1.324-.376-2.646-.552-3.973-.191-1.35-.006-2.82-.452-4.1a2.465,2.465,0,0,0,0-.286.633.633,0,0,0-.087-.568c-.008-.03-.019-.059-.027-.088.118-.276.227-.624.523-.743a1.816,1.816,0,0,0,.6-.1,1.308,1.308,0,0,1,.4.214c.271.844-.155,2.76.822,3.092.47,2.663,1.249,5.753,1.856,8.594-.068.824.525,1.607.777,2.379.346.6.434,1.475,1.051,1.846a.692.692,0,0,0,.924-.466.657.657,0,0,0-.1-.548c-.368-.763-.705-1.546-1.014-2.337-.34-1.351-.67-2.591-.928-4a2.208,2.208,0,0,0-.338-1.682c-.169-.6-.318-1.214-.46-1.824-.206-1.173-.424-2.344-.67-3.51a.644.644,0,0,0-.043-.592c.14-.135.27-.33.469-.374a.681.681,0,0,1,.423.536c.138.493.592,1.039,1.154.843a5.271,5.271,0,0,1,.532,2.059c-.105.476.093,1.07.654,1.083.264,1.256-.021,2.907.951,3.87a28.169,28.169,0,0,0,.806,3.543,6.578,6.578,0,0,0,.851,1.96.7.7,0,0,0,1.083-.771,9.6,9.6,0,0,1-.871-2.772c-.2-.865-.452-1.836-.611-2.726.049-.451-.093-1.08-.6-1.163a23.241,23.241,0,0,0-.5-3.49,1.678,1.678,0,0,0-.08-.209.778.778,0,0,0,.209-.156c1.076-.112,1.462,1.133,1.633,1.977.216.585-.017,1.65.776,1.823.419,1.6,1.188,3.065,1.755,4.6.357.681.678,2.728,1.668,2.507-.218.962,1.027,1.316,1.268,2.153a1.231,1.231,0,0,0,.214.985c.2.352.4.782.8.941a10.748,10.748,0,0,1,.618,1.415c-.537.5-.071,1.326.439,1.654.168.381.311.773.455,1.164.049.159.125.4.2.639-.368.273-.272.769-.149,1.145a4.97,4.97,0,0,1,.4,1.629.751.751,0,0,0-.651,1.208,9.282,9.282,0,0,1-.94,3.392c-.719.066-.926.933-1.172,1.488a6.283,6.283,0,0,0-.544,2.49m1.2-19.347a.633.633,0,0,0,0-.15,20.744,20.744,0,0,1,2.931.639,5.14,5.14,0,0,0,1.709.029,4.523,4.523,0,0,1-.7,2.766c-.707.057-1.19.894-1.261,1.543a2.243,2.243,0,0,1-.347.482c-.335-1.92-1.459-3.6-2.339-5.31m25.233-32.168a.811.811,0,0,0,.425.339,1.093,1.093,0,0,0,.121.1,16.828,16.828,0,0,1,.25,3.4,1.083,1.083,0,0,0,.132,1.028c-.054.484-.086.975-.18,1.45-.155.383-.321.877-.024,1.231-.042.159-.087.317-.136.476-.026.07-.051.14-.078.21-.839.014-1.118,1.233-.7,1.829l-.019.07a10.38,10.38,0,0,1-.408,1.007c-.595.045-.826.733-.788,1.245a18.373,18.373,0,0,1-1.174,2.34.919.919,0,0,0-.587.454,1.5,1.5,0,0,0-.272,1.018c-.081.147-.164.292-.254.434-.082.118-.167.232-.255.343-.875-.124-.86,1.031-1.394,1.469a1.343,1.343,0,0,0-1.037,1.12,4.255,4.255,0,0,1-.685.6c-.45.112-.936.479-.776,1-.049.036-.1.072-.148.107-.847.14-1.36,1.194-1.676,1.957a2.692,2.692,0,0,0,.717,2.657.752.752,0,0,0-.251.226,6.859,6.859,0,0,1-1.836,1.835c-.233.127-.565.267-.661.543l-.118.059c-.294.139-.6.289-.909.439a.871.871,0,0,0-.931.3,3.289,3.289,0,0,1-1.318.975,1.29,1.29,0,0,0-1.961.431q-.568.181-1.144.337a1.657,1.657,0,0,0-2.42.238,5,5,0,0,1-1.4.04c-.382-.467-1.206-1.053-1.7-.416a5.5,5.5,0,0,1-2.1-.566.85.85,0,0,0-.955-.569c-.372-.486-.748-.972-1.068-1.437-.353-.826-.336-1.743-.655-2.578a.8.8,0,0,0-.585-.5,5.5,5.5,0,0,1-.5-2.01c-.011-.3-.225-.515-.3-.791-.131-.424-.18-1.022-.657-1.193a2.784,2.784,0,0,0-3.278-2.271,2.391,2.391,0,0,0-.416.154c-.329-.986-.857-2.063-1.839-2.238a1.625,1.625,0,0,0-2.294-.218,1.812,1.812,0,0,0-.131-.308,1.992,1.992,0,0,0-2.206-.775,1.809,1.809,0,0,0-1.383.833,1.543,1.543,0,0,0-.334-.178s0-.008-.005-.012c-.561-.658-1.235-.235-1.809.47-.033-.031-.066-.061-.094-.093v0a.722.722,0,0,0-.269-.528.8.8,0,0,0-.863-.36,2.1,2.1,0,0,1-.233-.425,1.088,1.088,0,0,0-.758-1.491,4.311,4.311,0,0,1-.212-1.163.7.7,0,0,0-.157-.7.729.729,0,0,0-1.033-.056.6.6,0,0,0-.172.27.581.581,0,0,0-.151.045,3.045,3.045,0,0,1-1.176-.043.847.847,0,0,0-1.45-.507,1.176,1.176,0,0,1-.872-.388c.9-.682-.242-1.832-1.084-1.329a.56.56,0,0,1-.143-.054,2.616,2.616,0,0,1-.066-.66c.444-.516.164-1.548-.614-1.467-.007-.079-.013-.158-.019-.238,0-.18,0-.356.013-.534a1.151,1.151,0,0,0,.2-.394,1.25,1.25,0,0,0-.027-.97,2.5,2.5,0,0,1,.834-.849,2.186,2.186,0,0,0,1.275-.579,4.5,4.5,0,0,1,1.454-.029.713.713,0,0,0,1.079.129.839.839,0,0,0-.258-1.3c.35-.16.71-.319,1.092-.468a3.764,3.764,0,0,0,2.144-.62,5.9,5.9,0,0,0,2.261-.566A5.119,5.119,0,0,0,121.8,49.2c1,2.094,3.232,3.091,5.162,4.149a2.258,2.258,0,0,0,1.974-.016c.517-.091,1.015.088,1.544-.032A10.445,10.445,0,0,0,133.26,52a4.685,4.685,0,0,0,.863-1.166,6.847,6.847,0,0,0,1.284-1.968c.623-1.352,1.224-3.056.465-4.468a3.477,3.477,0,0,0-.513-1.778.671.671,0,0,0,.182-.846,5.089,5.089,0,0,1,.968-.726.875.875,0,0,0,1.179-.364,5.11,5.11,0,0,1,1.6-.346c.505.419,1.1-.1,1.679.019.62-.025,1.4.638,1.766-.184.606-1.807-4.665-1.281-5.526-.817a4.741,4.741,0,0,0-3.151,2.063A4.7,4.7,0,0,0,132.236,40a5.273,5.273,0,0,0-2.359-.306c-.7.009-1.574-.188-2.295-.121-.464.127-.9.353-1.355.512-2.752.546-4.438,1.95-5.076,4.737a5.548,5.548,0,0,0-.027,1.053.686.686,0,0,0-.523.351,4.66,4.66,0,0,1-1.8.38.732.732,0,0,0-.934.445c-.478.216-1,.06-1.468.277a6.172,6.172,0,0,1-.9.383,17.021,17.021,0,0,1-.38-1.763c-.219-.629.161-1.491-.415-1.949-.033-.7-.01-1.491,0-2.224a1.287,1.287,0,0,0-.135-1.494c.006-.11.013-.219.021-.329q.06-.555.154-1.1c.887-.211,1.035-1.614.533-2.245a7.845,7.845,0,0,1,.484-2.132c.762-.081,1.582-1.5.947-2.1a8.487,8.487,0,0,1,.733-1.663c.75-.213,1.7-1.4.937-2.071.142-.251.288-.5.441-.747.119-.193.249-.379.375-.567a.733.733,0,0,0,.373-.4.727.727,0,0,0,.448-.967v0a4.668,4.668,0,0,0,4.124,1.018c2.087.745,4.373.308,6.494-.073,1.057.712,2.443.176,3.58-.064a10.758,10.758,0,0,0,5.582-1.227,8.2,8.2,0,0,1,1.818-.128c.222.367.727.4,1.126.387.515,0,1.265-.055,1.389-.671a10.581,10.581,0,0,1,1.88-.079c.512.345,1.765.53,2.2-.007a3.5,3.5,0,0,1,1.1.176c.125.315.494.39.789.494a.726.726,0,0,0,.892.344,2.128,2.128,0,0,0,1.7.242.646.646,0,0,0,.177-.187,10.842,10.842,0,0,1,1.671.568c-.116.753,1.435,1.557,2.073,1.362a4.781,4.781,0,0,1,1.1.834c-.6.865.787,2.256,1.588,1.44a4.311,4.311,0,0,1,1.008,1.157c-.288.641.16,1.893.906,2.02a11.849,11.849,0,0,1,.363,1.615,6.838,6.838,0,0,0-1.482.274,8.67,8.67,0,0,0-3.136.881c-.653-1.512-2.5-1.732-3.809-2.456a2.386,2.386,0,0,0-1.616-.062,17.86,17.86,0,0,0-3.39.888,4.062,4.062,0,0,0-2.83,1.292,2.434,2.434,0,0,0-1.688,2.256.634.634,0,0,0-.538.346c-.519,1.8-.411,4.846.834,6.337a7.2,7.2,0,0,1,1.323,1.3,7.069,7.069,0,0,0,3.938,1.712,4.249,4.249,0,0,0,2.178-.57,3.927,3.927,0,0,0,2.253-.582,1.52,1.52,0,0,1,.532-.352,4.1,4.1,0,0,0,1.45-1.067,6.24,6.24,0,0,0,1.1-.959,2.275,2.275,0,0,0,.349-.968c1.021-.006.776-1.552.736-2.282a21.56,21.56,0,0,0-.45-3.255.712.712,0,0,0,.421-.413c.194-.088.39-.169.589-.246.227-.072.456-.134.687-.191.337.308.905.139,1.305,0a1.7,1.7,0,0,0,.641-.376,2.762,2.762,0,0,1,1.163-.049c.013,0,.025,0,.039,0a.659.659,0,0,0,.135.06,2.922,2.922,0,0,0-.119.454c-.15,1.351,2,1.308,1.451-.048a2.673,2.673,0,0,1,.8-1.072.805.805,0,0,0,.849.318.914.914,0,0,0,.641-.611,2.334,2.334,0,0,1,1.824.771.914.914,0,0,0,.1.586.784.784,0,0,0,.548.419,1.419,1.419,0,0,1,.364.981c-.313.435-.366,1.279.165,1.574a3.522,3.522,0,0,1-.157,1.013.79.79,0,0,0-.592,1.039,5.447,5.447,0,0,1-.419,1.416c-.523-.181-1.006.3-1.143.775a4.87,4.87,0,0,1-1.166.756c-.023.008-.046.016-.068.027a.683.683,0,0,0-.638,1.008m-29.947-.44a6.37,6.37,0,0,1-1.636,4.138c-.4.5-.606,1.191-1.259,1.43a9.041,9.041,0,0,1-1.836.758,4.945,4.945,0,0,0-2.24.246c-.9-.313-1.666-.96-2.554-1.324a6.428,6.428,0,0,1-2.269-2.3,5.2,5.2,0,0,1-.372-1.786,5.612,5.612,0,0,1-.157-1.589,5.613,5.613,0,0,1,1.176-2.474,6.192,6.192,0,0,1,2.915-1.3c.438-.137.852-.344,1.284-.5.57.048,1.137.107,1.707.125a13.8,13.8,0,0,1,1.894.107c.483.3,1.159.493,1.42,1.017.252.43.536,1.1,1.15.923a4.636,4.636,0,0,1,.436,1.047c.011.5-.133,1.144.342,1.478m16.8.336c-.972-.144-1.815.869-2.836.458a4.915,4.915,0,0,1-3.2-2.019.776.776,0,0,0-.508-.38,1.725,1.725,0,0,1-.557-1,1.321,1.321,0,0,0,.051-.744,1.427,1.427,0,0,0-.307-.824,10.635,10.635,0,0,1,.006-1.489.665.665,0,0,0,.248.012c1.005-.206.355-1.355.605-2.033.153-.9,1.514-.38,1.651-1.349a2.489,2.489,0,0,1,1.281-.52c.477.159,1.134.236,1.345-.353.592-.2,1.206-.3,1.812-.438a2.208,2.208,0,0,1,1.9.085c.98.455,2.376.694,2.709,1.8a.772.772,0,0,0-.067.236c-.015.542.388,1.023.421,1.57a1.6,1.6,0,0,0,.229,2.2,7.548,7.548,0,0,1,.052.968,3.374,3.374,0,0,0-.053.423.71.71,0,0,0-.707.615,1.212,1.212,0,0,1-.114.373c-.308.344-.732.555-1.05.889a3.265,3.265,0,0,1-1.31.866,2.589,2.589,0,0,1-1.649.649l.052.009M119.029,65.944a.755.755,0,0,0-.131-.091,6.552,6.552,0,0,0-.989-.43.99.99,0,0,0-.71-.158.811.811,0,0,0-1.006-.759l-.019-.012c-.1-.065-.19-.132-.282-.2.131-.885-1.016-.9-1.514-1.34-.21-.481-.794-1.012-1.336-.7.154-.779-.933-1.773-1.681-1.415q-.12-.122-.239-.246c.277-.721-.882-2.217-1.662-2.054-.06-.759-.8-1.894-1.663-1.538l0,0a7.977,7.977,0,0,1-.524-.641c.132-.707-.083-1.8-.929-1.91a2.31,2.31,0,0,0-1.216-2.226q-.1-.229-.188-.461a5.021,5.021,0,0,0-.145-1.866c-.049-.434-.31-.951-.807-.936-.047-.188-.1-.376-.157-.564a.744.744,0,0,0,.216-1.123,10.692,10.692,0,0,1-.627-1.6.823.823,0,0,0-.129-.941,2.094,2.094,0,0,0-.243-2.483c-.008-.077-.017-.154-.025-.231-.01-.106-.02-.212-.029-.319.59-.625.6-2.171-.437-2.306A10.132,10.132,0,0,1,102.6,38.1c.565-.573,1.542-3.008.228-3.193q.074-.6.173-1.2v0c.431-.643,1.148-1.9.468-2.56q.06-.21.118-.421c.219-.789.406-1.591.637-2.377a.681.681,0,0,0,.011-1.074q.125-.42.258-.846c.27-.765,1.088-1.718.8-2.584q.178-.48.381-.951c.875-.27,2.248-2.15,1.134-2.812.145-.244.294-.486.445-.727l.033-.051c.887.232,1.257-.877,1.559-1.5a1.222,1.222,0,0,0,.119-1,4.162,4.162,0,0,1,1.417-1.76c.333-.3.735-.669.6-1.165a12.073,12.073,0,0,1,1.563-1.522.713.713,0,0,0,1.111-.81c.036-.048.072-.1.11-.144l.014-.015.117-.089a.713.713,0,0,0,.445-.485c.077-.073.152-.146.23-.218.939.458,3.823-1.655,3.37-2.728l.109-.07c.869-.13,4.1-1.12,3.237-2.365.966.017,3.249-.874,3.612-1.8q.267-.078.536-.15a2.216,2.216,0,0,0,1.229-.047c.5-.093,1.208-.293,1.209-.909.384-.136.769-.265,1.157-.384.431.87,3.163.133,3.417-.668a4.293,4.293,0,0,1,1.527-.035,1.215,1.215,0,0,0,.549.149.709.709,0,0,0,.94-.176c.271,0,.542-.009.813-.011.454,0,.907,0,1.36.015.326.78,2.453.733,2.884.067q.308-.013.618-.009c.242.015.482.038.722.07.143.513.737.592,1.19.5a14.545,14.545,0,0,1,1.809.378c-.355,1.267,1.94,1.542,2.632.915a15.225,15.225,0,0,1,1.523.36q.152.054.3.112c-.4,1.03,1.11,1.407,1.816,1,.036.609.689.832,1.248.886a.638.638,0,0,0,.09.449.811.811,0,0,0,.625.365,8.65,8.65,0,0,1,1.3.444,2.352,2.352,0,0,1,.174.236.666.666,0,0,0,.842.256c.2.108.389.219.578.337-.009.466.417.769.7,1.086.34.32.8.732,1.292.491q.344.267.681.543c-.568.943.819,1.926,1.683,1.55a8.507,8.507,0,0,1,.87.821c-.132.636,1.276,2.31,1.96,1.931a10.527,10.527,0,0,1,.861,1,1.45,1.45,0,0,0,.361.945c.28.405.634,1,1.209.9a16.1,16.1,0,0,1,1.481,1.871c-.185.388.046.8.174,1.166.237.575.5,1.452,1.268,1.4.264.414.521.831.767,1.257-.943.671.332,2.673,1.286,2.62q.084.181.162.365a1.142,1.142,0,0,0-.166,1.256,4.063,4.063,0,0,0,1.04,2.142,2.055,2.055,0,0,0,.9,2.24h0a9,9,0,0,1,.716,3.724c-1.521-.191-1.4,2.306.037,2.165q.036.148.067.3c.012.078.042.248.066.419-1.174.041-.93,2.132-.117,2.521a2.629,2.629,0,0,1-.41,1.258c-.568.168-1.059.722-.748,1.315a.734.734,0,0,0,.706.376q-.038.1-.08.192-.064.126-.135.247c-.8.067-1.491,1.23-.81,1.835l-.042.067c-.07.1-.141.189-.215.282-.529.13-1.107.7-.849,1.272a1.235,1.235,0,0,0-.5,1.3c-.163.2-.415.277-.565.486-.218.321-.09.761-.409,1.027-.71.313-1.069,1.065-1.75,1.436a4.934,4.934,0,0,0-.5.3c0-.008-.007-.015-.011-.022.068-.595.127-1.186.18-1.782.037-.41.1-.919-.243-1.22A11.266,11.266,0,0,0,166.592,46c.278-.18.535-.376.735-.511,1.451,0,1.91-1.824,2.194-2.966a4.135,4.135,0,0,0,.625-3.733,2.707,2.707,0,0,0-.421-1.85c-.45-.508-.673-1.142-1.113-1.648a3.714,3.714,0,0,0-3.288-.86,2.376,2.376,0,0,0-2.358,1.067c-.311-2.591-1.3-5.507-3.747-6.789a5.672,5.672,0,0,0-2.466-2.076,7.04,7.04,0,0,0-3.15-1.686,8.042,8.042,0,0,0-2.628-.339l-.293-.112c-1.022-.932-2.6-.828-3.9-.73a10.819,10.819,0,0,0-4.3.372,9.56,9.56,0,0,0-3.969.34.954.954,0,0,0-.647.419c-.184.06-.37.117-.554.176l-.148.04c-.36-1.029-2.928-.176-3.455.4l-.074.019-.253.06c-.191-.644-.946-.524-1.449-.387-1.063.239-2.138.4-3.211.6a1.438,1.438,0,0,0-1.775.106,5.02,5.02,0,0,1-1.879-.116c-.336-.7-1.839-1.123-2.052-.12a3.079,3.079,0,0,1-2.172-.87c-.368-.419-.876-.98-1.433-.481a11.789,11.789,0,0,0-1.159,1.838c-.505.656-.868,1.463-1.3,2.144a36.187,36.187,0,0,0-1.79,4.287,8.4,8.4,0,0,0-.982,2.164,25.189,25.189,0,0,1-.632,2.914,11.9,11.9,0,0,0-.354,3.44,6.7,6.7,0,0,1,.114,1.683,5.9,5.9,0,0,0,.364,2.757c.113,1,.4,1.971.507,2.967a.586.586,0,0,0-.07.3c-2.135.132-4.407,1.6-4.2,3.916-.047.925-.16,2.188.6,2.85a1.672,1.672,0,0,0,1.179,1.758,2.534,2.534,0,0,0,2.623,1.811,1.7,1.7,0,0,0,.512.312,3.8,3.8,0,0,0,1.088.232,2.953,2.953,0,0,0,.994-.052,3.157,3.157,0,0,0,.783,1.664,3.151,3.151,0,0,0,1.451,2.087,1.1,1.1,0,0,0,.261.134,3.24,3.24,0,0,0,.458.452,7.067,7.067,0,0,0-.447,1,6.739,6.739,0,0,1-.4.957m15.859,77.108c-.215.553-.541,1.337-.006,1.8-.1.276-.2.551-.3.826a.693.693,0,0,0-.093.019,1.4,1.4,0,0,0-.21.189c-1.037-.093-1.607,2.1-1.335,2.861l-.122.223c-.263.436-.533.865-.816,1.287-.909-.622-1.857,1.061-1.87,1.877a11.012,11.012,0,0,1-2.179,1.993c-.642-1.483-2.912.028-2.935,1.2-.353.075-.708.129-1.066.176q-.287.031-.575.06a.776.776,0,0,0-1.206-.107.708.708,0,0,0-1.049.247l-.169.061a6.348,6.348,0,0,0-2.085-.842c-.537-.2-1.292-.239-1.5.428q-.082-.027-.162-.056c-.314-.367-.62-.885-1.14-.943a.687.687,0,0,0-.7.812,4.851,4.851,0,0,1-1.669-.91c.283-1.123-1.287-2.015-1.718-.72a3.238,3.238,0,0,1-1.229-1.046c.187-.74-.85-2.426-1.708-1.824-.106-.158-.207-.318-.306-.482-.069-.138-.137-.276-.2-.416.879-.891-.639-3.148-1.622-1.96a3.27,3.27,0,0,1-.486-1.049.659.659,0,0,0,0-1.011c-.047-.051-.087-.106-.132-.158,0-.026,0-.053,0-.079a.69.69,0,0,0-.516-.624c-.191-.3-.364-.616-.528-.937a5.363,5.363,0,0,1-.135-.641.91.91,0,0,0-.508-.667c-.038-.078-.076-.155-.115-.232a3,3,0,0,0-.195-1.548,3.689,3.689,0,0,0-1.1-1.957c.276-.553-.02-1.23-.15-1.793a4.026,4.026,0,0,0-.831-1.813c.4-.6.113-1.392.02-2.048-.235-.738-.258-1.676-.836-2.236a5.534,5.534,0,0,0-.78-3.161,8.155,8.155,0,0,0-.184-2.279c-.157-.646-.115-1.471-.637-1.947-.007-.058-.014-.117-.02-.176,1.149-.227,1.117-4.309-.111-4.479,1.064-.247.9-1.693.974-2.546-.058-.761.1-1.981-.806-2.3q0-.221,0-.444c.766-.5.568-1.645.693-2.444.027-.523.082-1.245-.5-1.494.767-.417.981-2.954.081-3.3q.073-.6.158-1.19c.756-.837,1.858-3.755.827-4.6.576-.84,1.3-2.625.525-3.492q.06-.164.123-.326c.05-.121.1-.239.158-.357.88-.282,2.4-2.087,1.374-2.876q.6-.984,1.264-1.93c.544.048.848-.556.924-1.022a.739.739,0,0,0-.374-.814c.2-.257.4-.515.608-.776,1.172.362,2.884-1.452,1.707-2.4.212-.247.431-.489.657-.726.212-.2.423-.39.641-.579.872-.161,3.242-.946,2.274-2.149q.313-.259.632-.51l.1-.071a2.713,2.713,0,0,0,2.01-.531c.644-.27,1.374-1.052.721-1.694.112-.071.223-.142.334-.214.15-.086.3-.178.455-.254.351.625,1.134.29,1.636.063.561-.3,1.364-.515,1.58-1.176.278-.162.555-.325.842-.471a22.135,22.135,0,0,0,4.351,9.785.862.862,0,0,0,.321.8A15.481,15.481,0,0,1,124.9,90.5c-.4.642.394,1.5.895,1.866a10.853,10.853,0,0,1,.7,1.621c-.243.806.26,1.8.25,2.654a.907.907,0,0,0,0,.333h-.014l-.048-.008a1.365,1.365,0,0,0-1.531-.179.936.936,0,0,0-.426-.077c-.795.085-1.387.885-1.706,1.556a12.932,12.932,0,0,0,.035,1.883c-1.141.055-.9,1.7-.228,2.219a13.354,13.354,0,0,1-.177,3.185c-1.08-.259-1.073,1.212-.736,1.871a14.315,14.315,0,0,1-.3,2.7c-1.011.016-.9,1.488-.407,2.038a5.965,5.965,0,0,1-.28,1.926c-1.555-.99-2.194,2.23-.615,2.394a7.8,7.8,0,0,1-.332,2.592c-1.107-.594-1.485.972-.924,1.691a6.956,6.956,0,0,1-.464,1.637c-.97-.3-1.234,1.09-.918,1.752a8.337,8.337,0,0,1-.99,2.266.717.717,0,0,0-.782.454.889.889,0,0,0,.026.849c1.468,1.482,2.921-2.561,3.124-3.618a6.484,6.484,0,0,0,1.319-3.188c1.3-1.334,1.314-3.5,1.219-5.256a6.22,6.22,0,0,0,.948-3.921,12.806,12.806,0,0,0,.721-4.026,2.83,2.83,0,0,0,.646-1.522,14.188,14.188,0,0,0,.259-4.208,8.2,8.2,0,0,0,.191-3.3c.04-.058.083-.114.127-.17s.1-.123.157-.183a.716.716,0,0,0,1,.263.7.7,0,0,0,.28-.348,12.567,12.567,0,0,0,1.579.211c.787.046,1.509.537,2.333.5a12.375,12.375,0,0,0,2.618-.113,5.454,5.454,0,0,0,1.164.291,7.848,7.848,0,0,0,.838.094,26.286,26.286,0,0,0,5.026-.417c-.012.829.136,1.664.088,2.487-.1.937-.721,2.711.421,3.182.016.419.029.837.035,1.256q-.008.261-.02.521c-.9.165-.872,2.719-.309,3.222q-.041.688-.1,1.376-.014.171-.027.342c-.622.323-.574,1.153-.658,1.757-.039.672-.036,1.733.8,1.885-.006.117-.014.235-.023.352-.025.3-.057.6-.094.892-.514.4-.489,1.147-.662,1.727-.117.749-.6,2.335.58,2.382-.015.686-.038,1.371-.083,2.055-.375.149-.454.6-.475.958a3.883,3.883,0,0,0,.1,1.7c-.072.472-.148.943-.249,1.41q-.13.594-.283,1.178a1.315,1.315,0,0,0-.448.977c-.09.414-.133,1,.329,1.2a19.856,19.856,0,0,1-.359,2.691.744.744,0,0,0-.336.073.985.985,0,0,0-.454,1.018,20.244,20.244,0,0,1-.638,4.364c-1.093.117-1.243,2.578-.436,3.106-.066.219-.141.436-.215.653-.614.219-.783.963-1.06,1.487m19.688,13.911a13.734,13.734,0,0,1,.216,1.611c-.008.26-.008.521-.007.782-.485-.217-1.2-.231-1.448.128-.135.016-.27.03-.406.042-.235-.37-.73-.295-1.109-.29-.415.014-1.022-.09-1.246.388-.165.018-.33.032-.5.039a3.811,3.811,0,0,0-1.793-.692c-.373-.1-.882-.208-1.144.151a10.157,10.157,0,0,1-1.5-.562,1.036,1.036,0,0,0-.719-.283.665.665,0,0,0-.539.207c-.133-.058-.262-.125-.389-.2.411-.811-.574-1.143-1.168-1.352-.53-.177-1.257-.74-1.73-.193-.093-.046-.184-.094-.275-.142-.148-.088-.307-.186-.462-.287.172-1-1.065-1.755-1.944-1.76a11.877,11.877,0,0,1-.982-1.274c.358-.884-.078-2.8-1.3-2.6a9.942,9.942,0,0,1-.929-3.207,21.754,21.754,0,0,0,1.546-4.038,25.165,25.165,0,0,0,.977-3.419c0-1.978.769-3.876.865-5.865a.642.642,0,0,0,.519-.506c.058-.347.119-.695.179-1.043a5.918,5.918,0,0,1,.766,2.2,1.667,1.667,0,0,0-.133,2.061,16.586,16.586,0,0,1-.045,3.073.722.722,0,0,0-.067.831c-.045.49-.181,1.056-.191,1.562a.7.7,0,0,0,1.4-.1c.094-.671.154-1.374.308-2.039a.738.738,0,0,0-.031-.8,21.618,21.618,0,0,0,0-2.748,16.3,16.3,0,0,0,.114-2.057,7.18,7.18,0,0,0-.642-2.144,2.965,2.965,0,0,0-1.206-1.608,15,15,0,0,0,.137-2.087,1.981,1.981,0,0,1-.021-.254c.121.127.245.254.363.384a1,1,0,0,0,.394.915,3.566,3.566,0,0,0,1.08.872,17.393,17.393,0,0,1,1.337,1.738c-.876.7.463,2.253,1.209,2.53a9.263,9.263,0,0,1,.44,1c-.776.509-.116,2.064.1,2.785-1.2,1.476,3.108,8.9,4.935,8.805a3.863,3.863,0,0,0,2.438.954,2.244,2.244,0,0,0,1.777.091,11.606,11.606,0,0,1,.342,1.609c-.3.365-.153.852-.113,1.278.062.427.124,1.087.577,1.329.173.765.321,1.536.439,2.312.018.175.032.348.043.523-.675.03-.8.847-.464,1.338m43.212-21.241a2.656,2.656,0,0,0-.767,1.8c-.152.554.029,1.288.7,1.331q-.037.7-.109,1.4c-.619.515-1.548,2.826-.277,3.042q-.039.212-.086.422c-.667.426-1.352,1.515-.373,2-.083.249-.169.5-.256.745-.105.3-.211.6-.321.893-.866.057-1.852,2.337-.974,2.832a15.687,15.687,0,0,1-1.656,2.015A.721.721,0,0,0,193,153.4a17.312,17.312,0,0,1-2.51,1.7c-.675-.583-1.646.347-1.786,1.026a10.249,10.249,0,0,1-1.8,1.163c-.549-.376-1.211.189-1.535.63a6.849,6.849,0,0,1-1.549.7,6.611,6.611,0,0,1-1.985.24.675.675,0,0,0-.711.709.613.613,0,0,0,.093.272l-.118.094c-.509-1-3.809-.2-3.738,1.006l-.26.115c-.45.186-.9.368-1.361.525-.2-.975-1.509-.582-2.228-.657-.8-.058-2.008.1-1.79,1.184-.145.036-.289.068-.435.1a2.442,2.442,0,0,0-1.233-.508,3.692,3.692,0,0,0-1.818-.148.806.806,0,0,0-.055,1.356,8.975,8.975,0,0,1-2.222.459c-.4-.7-1.376-.576-2.071-.58-.56-.037-1.378.123-1.284.849a11.311,11.311,0,0,1-1.7.008c-.4-1.155-3.068-1.488-2.918.115a2.374,2.374,0,0,1-1.382-.819.736.736,0,0,0-.381-.6c-.02-.544-.019-1.087-.02-1.63a.68.68,0,0,0,.109-.527.655.655,0,0,0-.114-.257,17.17,17.17,0,0,0-.141-2.2,1.219,1.219,0,0,0,.349-1.084,15.934,15.934,0,0,0-.47-3.877c-.316-1.185-.417-2.4-.635-3.607a.691.691,0,0,0-.159-1.081,2.818,2.818,0,0,1,.023-.913c1.5-.016,3.016.365,4.506,0a6.259,6.259,0,0,0,4.029-.759,6.7,6.7,0,0,0,3.391-.716c1.877.257,3.395-.917,4.738-2.06.352-.242.854-.451.733-.978-.012-.035-.027-.06-.041-.091a.445.445,0,0,1,.211,0c.783.432,1.468-.535,1.915-1.075a4.3,4.3,0,0,0,.918-1.428c.049-.039.1-.08.142-.123a2.759,2.759,0,0,0,.869-1.894c.975-1.029,1-2.6,1.072-3.943a27.626,27.626,0,0,0,.683-4.441,44,44,0,0,0,.039-9.739,68.536,68.536,0,0,0-.666-8.875c-.841-4.807-4.513-2.29-1.639-.77a12.431,12.431,0,0,1,.6,3.247c-1.59.131-.7,2.582.226,3.085a16.279,16.279,0,0,1,.093,1.981c-.542.387-.354,1.178-.435,1.758.026.673-.167,1.744.636,2.022-.422.135-.512.591-.5.979a3.221,3.221,0,0,0,.5,2.319c.009.243.016.485.023.729q0,.332,0,.663c-.79-.14-1,.755-.983,1.365-.005,1.027-.324,2.459.6,3.172q-.024.279-.055.559-.017.113-.035.225c-1.057-.083-1.38,2.527-.464,2.86a7.606,7.606,0,0,1-.189,1.113c-1.286-.767-1.761,1.063-.815,1.78a1.469,1.469,0,0,1-.137.477c-.876-.454-1.53.68-.943,1.358-.088.133-.183.26-.279.387-.266.339-.533.686-.83,1-.733-.34-2.439.482-2.24,1.347-.195.156-.373.314-.515.427a1.161,1.161,0,0,0-1.647.528c-.594-.63-2.975.155-2.847,1.11q-.152.053-.306.1c-.213.058-.428.1-.645.141-.377-.651-1.247-.317-1.856-.336-.549-.055-1.178.327-.969.947l-.267.087c-.252-.643-1.054-.445-1.585-.368-.516.124-1.268,0-1.509.6q-.107.008-.215.012h-.085c-.481-.346-1.729-.748-2.122-.121-.713-.026-1.7-.246-2.212.383a3.547,3.547,0,0,0-.2.532c-.538-.371-1.288-.484-1.551.174-.145-.1-.313-.23-.492-.362a.58.58,0,0,0,.213-.439c-.006-.755.022-1.515-.031-2.272a.8.8,0,0,0,.409-.69,16.023,16.023,0,0,0-.245-2.66,34.283,34.283,0,0,1-.389-4.439,9.174,9.174,0,0,1-.006-3.058,20.9,20.9,0,0,0-.249-4.027,16.912,16.912,0,0,0,.356-5.4,19.673,19.673,0,0,0,.409-7.253.691.691,0,0,0,.124-.571,16.051,16.051,0,0,0-.3-1.947,11.329,11.329,0,0,0,0-3.153c-.2-1.527.094-3.113-.394-4.61.648-1.26.219-2.764-.035-4.077a21.193,21.193,0,0,0-.018-3.966c1.19-.61,2.6-1.238,3.228-2.486a7.948,7.948,0,0,0,2.947-2.455,10.275,10.275,0,0,0,2.679-4.577,9.107,9.107,0,0,0,1.174-3.108,30.356,30.356,0,0,0,.866-4.435,2.746,2.746,0,0,0-.03-.666.635.635,0,0,0-.074-.2c.809-1.094,1.8-2.17,1.791-3.606a1.665,1.665,0,0,0,.014-.3,2.548,2.548,0,0,1,.963.137,2.117,2.117,0,0,0,1.923.483,1.822,1.822,0,0,0,1.054.393,1.2,1.2,0,0,0,.546-.04q.225.063.448.133c.165.06.328.121.489.186a1.46,1.46,0,0,0,2.1.9c.328.139.653.287.976.438.172.628.792,1.014,1.247,1.437.441.4,1.1.867,1.689.488.192.72,1.658,1.978,2.431,1.757l.184.145c.133.791,1.27,2.1,2.1,1.423q.494.462.963.947c-.511.749,1.153,2.586,1.921,2.451.365.413.723.834,1.067,1.286-.117.772.4,2.306,1.4,1.935-.009.854.8,3.346,1.983,2.739.193.246.387.49.578.737a2.216,2.216,0,0,0,1.507,2.394c.049.108.092.218.14.326l-.011.01a.731.731,0,0,0,.131,1.036,10.953,10.953,0,0,1,.9,1.436.693.693,0,0,0,.094.188c.048.094.1.185.144.286-.467.486.161,2.577.922,2.531.1.233.193.466.283.7.1.259.185.521.266.785-.832.313-.388,1.371-.191,1.981.207.467.27,1.152.835,1.319q.19.517.365,1.041c-.993.582-.211,3.858,1.135,3.162.067.207.124.416.184.624.036.156.073.311.108.466-.836.508-.446,1.709-.424,2.515.011.52.254,1.154.883,1.067q.05.253.1.508a6.7,6.7,0,0,0-.015,2.83c.033.419.094.954.573,1.08l0,.018c-.575.786-.229,1.951-.176,2.863.028.493.19,1.151.8,1.151q.12.67.225,1.341c-.854.271-.864,1.332-.885,2.078-.051.843.157,2.387,1.334,2.088.022.561.04,1.124.027,1.686-.231.812-1.1,2.99.285,3.1q-.023.5-.061,1" transform="translate(-54.662)" fill="#333"/>
  </g>
</svg>
