<svg id="ill_家族が気づきやすい変化" xmlns="http://www.w3.org/2000/svg" xmlns:xlink="http://www.w3.org/1999/xlink" width="116.095" height="170" viewBox="0 0 116.095 170">
  <defs>
    <clipPath id="clip-path">
      <rect id="長方形_13036" data-name="長方形 13036" width="116.095" height="170" fill="none"/>
    </clipPath>
  </defs>
  <g id="グループ_16073" data-name="グループ 16073" clip-path="url(#clip-path)">
    <path id="パス_84555" data-name="パス 84555" d="M8961.485,3968.195c-3.161-1.8-2.3-8.622-2.3-8.622h-37.647l-2.012,8.622h-3.448l-6.609-1.437-4.886-3.448s-7.257,4.239-10.921,0-3.736-16.956-3.736-16.956l-4.022-1.724s-1.725-16.525-1.725-35.348,1.725-39.946,1.725-39.946a74.116,74.116,0,0,1,7.759-17.818c2.174-3.533,4.16-7.838,8.334-10.058,9.2-6.035,25.577-20.692,25.577-20.692v-8.047l-2.3-4.885-9.2-4.311-6.609-6.61-1.725-4.885h-3.161l-4.311-2.874-1.725-4.311,1.725-3.161,4.311-1.724,4.886,1.724v-15.231l12.069-14.944h18.393l17.243,5.173,6.61,9.771v20.692l-2.3,8.047-4.311,3.736-6.9,4.6-4.022,2.586v8.047l2.3,7.76,3.735,4.885,4.886,3.161h4.311s18.464,14.8,27.589,32.474,8.909,38.222,8.909,38.222-2.3,6.753-6.322,10.92a24.225,24.225,0,0,1-9.771,5.748l-10.058-4.6a175.1,175.1,0,0,0,1.437,22.7,227.633,227.633,0,0,0,4.886,24.14,30.245,30.245,0,0,1-6.322,7.185C8968.24,3969.485,8964.646,3969.991,8961.485,3968.195Z" transform="translate(-8883.069 -3736)" fill="#fff"/>
    <path id="パス_84541" data-name="パス 84541" d="M76.651,263.563c.2-4.123.357-8.266.17-12.391.545-3.1,1.093-6.2,1.587-9.309a62.811,62.811,0,0,0,1-15.279c-.219-2.439-.714-4.837-1.151-7.242a1.943,1.943,0,0,0,.2-.955c-.115-3.379-.279-6.757-.53-10.128-.882-11.784-2.84-23.637-7.429-34.59-.024-.057-.061-.1-.089-.16-1.231-7.68-2.323-15.419-5.8-22.336,4.211-2.553,9.041-5.035,9.5-2.493,9.3,2.908,21.588,3.665,30.908.371,2.62,2.394,7.24,4.128,10.035,5.787-.075,1.092-.754,3.752-.769,4.84-.037,2.655-.107,5.276-.328,7.923-.231,2.773-.475,5.548-.637,8.325a46.085,46.085,0,0,0-7.32-11.9c-3.221-1.792-6.689-4-10.583-4.665-10.744,1.093-10.618,7.914-5.626,13.938,3.06,3.418,7.138,6.232,10.715,9.344,4.687,7.63,9.386,15.74,9.655,24.863a83.079,83.079,0,0,0-3.314,23.748,126.313,126.313,0,0,0,3.936,29.1c.9,3.74,2.179,7.416,3.118,11.15a49.477,49.477,0,0,1,1.277,6.724,27.372,27.372,0,0,1,.194,3.3c0,.554-.035,1.106-.086,1.659-.018.124-.035.249-.056.373-.039.228-.083.456-.135.684a11.929,11.929,0,0,1-.387,1.263c-.027.079-.064.155-.1.233-.106.163-.187.338-.294.5s-.24.323-.361.484c-.052.05-.1.1-.159.149-.121.1-.263.2-.379.3-.063.03-.123.073-.185.1-.1.045-.205.092-.3.141-.141.026-.285.066-.427.106-.024-.08-.051-.152-.075-.233-.655.1-1.309.184-1.963.269-.172-.023-.344-.043-.515-.073a19.493,19.493,0,0,1-2.065-.489,2.573,2.573,0,0,0-2.744,1.1c-10.3.774-20.548.056-30.9-.635.418-1.889.808-3.784,1.125-5.693,1-6.019.981-12.128,1.275-18.208" transform="translate(-37.828 -59.571)" fill="#7dd0fc"/>
    <path id="パス_84542" data-name="パス 84542" d="M75.349,75.712c5.623-3.615,9.394,6.269,4.7,8.061-5.942,6.522-13.729-4.535-4.7-8.061" transform="translate(-8.566 -30.236)" fill="#fde67c"/>
    <path id="パス_84543" data-name="パス 84543" d="M119.324,79.4c6.515-2.626,10.806,8.636,5.349,9.392C118.356,96.5,110.5,81.8,119.324,79.4" transform="translate(-79.887 -31.882)" fill="#fde67c"/>
    <path id="パス_84544" data-name="パス 84544" d="M64.122,45.653a1.2,1.2,0,0,1-.252.582,1.281,1.281,0,0,1-.84,2.218c-2.385-1.023-3.9-4.114-6.625-5-1.021-3.676-2.378-7.784-1.859-11.729.544-.887.215-2.042.63-3.018.531-.708.889-1.966.184-2.67a20.475,20.475,0,0,1,.573-2.382c1.328-1.194,1.171-3.462,2.167-4.959.47-.666,1.178-1.5.639-2.328C60.085,11.787,69.455,3.481,74.232,3.07c.589-1.006,1.508-1.2,2.246-.531h0c15.481-7.786,33.755,3.623,42.278,16.82,1.727,3.375,3.726,17.875-2.122,17.169-.883-1.521-1.1-3.442-2.456-4.779a2.773,2.773,0,0,0-1.412-2.187c-1.318-1.347-1.782-3.719-3.764-4.278-1.151-.707-1.948-2.483-3.532-2.3a1.522,1.522,0,0,0-1-1.135,2.178,2.178,0,0,0-2.244-1.244,3.521,3.521,0,0,0-1.4-.845l.036.012c-1.6-.025-3.909-2.584-5-.554a1.259,1.259,0,0,1-.283-.051h0c-.755,2.864-3.686,3.37-5.289,5.538-7.445,8.571-25.852,6.829-26.173,20.943" transform="translate(-36.91 0)" fill="#5b5b5b"/>
    <path id="パス_84545" data-name="パス 84545" d="M125.622,95.984a8.564,8.564,0,0,0,.613-1.028c-1.25-2.784,2.809-2.023,4.4-2.176,2.816-.1,2.207,3.547,3.2,5.358-.506.863.123,1.782.379,2.617a.229.229,0,0,1-.011-.043,33.183,33.183,0,0,0,2.3,7.991s0-.005,0-.011c.656,1.544,1.189,3.44,2.639,4.428.869,1.1,1.275,2.5,2.427,3.376,6.8,9.122,14.015,20.68,10.355,32.618-.813,3.821-2.151,8.773-6.5,9.878-4.888,2.016-11.42,3.366-15.373-1.108h0a1.267,1.267,0,0,1-.636-2.43c4.284-2.167,5-1.248,4.84-6.677-3.491-19.111-20.666-10.858-13.428-39.662,1-4.569,1.894-9.324,4.8-13.13" transform="translate(-107.828 -37.441)" fill="#5b5b5b"/>
    <path id="パス_84546" data-name="パス 84546" d="M98.464,19.253a.569.569,0,0,1-.355-.1c-.044.084-.085.166-.134.25-.426-.255-.874-.48-1.283-.76a6.366,6.366,0,0,0,.489-1.192.742.742,0,0,1,.092-1.111c-.19-2.83-.457-4.657-.759-7.306a20.787,20.787,0,0,1-2.007-5.616c-.2.008-.428-.1-.6-.013,0-.016,0-.03,0-.045h0a7.47,7.47,0,0,1,.1-1.288h0c.007-.051.013-.1.017-.153.441.037.885.073,1.322.116,1.04,1.954,1.216,4.724,2.562,6.3.363,3.118.689,6.077,1,9.172.4.506.393,1.715-.443,1.755" transform="translate(-39.084 -0.773)" fill="#333"/>
    <path id="パス_84547" data-name="パス 84547" d="M77.629,60.488c4.207.219,4.154,5.052.082,5.6-3.818-.26-3.749-4.918-.082-5.6" transform="translate(-9.332 -24.41)" fill="#333"/>
    <path id="パス_84549" data-name="パス 84549" d="M123.091,67.7c1.3,1.94-1.211,4.527-3.243,3.606-5.091.067-1.4-8.336,3.243-3.606" transform="translate(-77.372 -26.736)" fill="#333"/>
    <path id="パス_84550" data-name="パス 84550" d="M97.137,60.6c1.287.514.641,2.477,1.52,3.478,1.552-.244.965,1.593,1.3,2.4a.987.987,0,0,1,.6.884c.463.444.9,1.026.246,1.546-1.375.39-3.166,2.729-4.486,1.665-.364-1.445,2.163-1.637,2.983-2.49-1.643-2.8-3.559-5.629-3.9-8.965-.494-1.329.83-2.517,1.376-.91a13.719,13.719,0,0,0,.364,2.394" transform="translate(-41.875 -23.177)" fill="#333"/>
    <path id="パス_84552" data-name="パス 84552" d="M125.454,223.114c.048-1.2.133-2.4.241-3.6-.034-.011-.066-.028-.1-.038.755-5.88.75-8.756,1.513-16.291-1.386-.359.284-2.77.47-3.665,1.715-8.377,6.7-15.977,11.359-23.085,1.352-3.252,5.067-5.738,7.377-8.55.329.342.784.648.944,1.1a77.24,77.24,0,0,0-17.753,28.438c.694.565.02,1.445-.293,2.036.444.5.712,1.935-.271,2.055a32.8,32.8,0,0,0-.749,5.176c1.01,1.122-.058,3.075-.036,4.463.854.607.32,6.656-.851,6.847a136.8,136.8,0,0,0-.6,14.6c1.026.667.506,2.255.633,3.3-.076.981.305,4.2-1.486,3.224-.186,1.644-.282,3.3-.339,4.956,1,.548.494,2.119.559,3.065a38.286,38.286,0,0,0-.206,10.429c.95.545.548,1.983.718,2.91-.079.941.517,2.667-.644,3.069.037,1.659.144,3.292.3,4.942,1.3,1.634.445,4.6,1.17,6.728,5.307,4.289,13.14.807,17.831-3.048-.051-1.213-.082-2.425-.1-3.638-1.392-3.348,0-7.632-.193-11.358-.992-9.02,1.078-18.313.636-27.4-1.43-1.5-.415-4.108-.6-6.032,0,.029,0,.057-.006.085.065-4.965.972-9.906,1.492-14.854-.958-.288-.616-1.356.229-1.539.031-.783.91-1.464,1.475-.686.449.771-.314,1.548-.268,2.354,1.272.661.5,2.518.565,3.665-.251,1.424-.166,6.007-1.774,6.341-.116,1.418-.179,2.741-.249,4.179,2.445-2.028,1.31,3.18.958,4.3-.59,1.673-.353,3.461-.344,5.2,1.347-.138,1.229,1.653,1.164,2.557-.13,1.043.144,3.283-1.427,3.15-.156,1.255-.252,2.515-.3,3.778,1.445-.068.868,7.154-.251,7.411-.034.652-.051,1.246-.076,1.952,1.572,2.237-.426,7.76-.014,10.819,1.464.049-.041,7.384.517,9.257,1.64,1.131-1.4,1.909-2,2.775.432,6.5.221,13.277,1.126,19.783,1.968,1.261,3.654,3.5,6.034,4.25.552.287,1.816.177,2.109.812.743-.785,4.175.779,5.227.793,1.995-2.89,1.884-6.646,2.472-10.017-.667-.565-.2-1.6-.2-2.345,1.028-6.556,1.117-13,1.854-19.6-.454-3.273.707-7.011.352-10.448-.178-.689-.254-2.026.8-1.865.147-2.5.291-5.012.26-7.527-1-.36-.83-3.617-.271-4.346.585-2.2-1.067-8.354.246-9.1.605-2.389-1.905-6.665-.3-7.977q-.072-2.543-.33-5.074c-.664-.871-1.678-4.7.511-3.826.388-2.088-1.322-4.649-.243-6.431-.082-.923-.191-1.909-.314-2.921-1.654-2.591-1.353-6.459-2.193-9.491-.46-.217-.534-.8-.579-1.254a20.888,20.888,0,0,0-.291-6.168c.451-.255.892-.514,1.325-.794.621,4.3.89,8.638,1.837,12.9,1.155.156,1.012,3.173,1.28,4.156.3,4.452,1.37,9.554.128,13.868a189.476,189.476,0,0,1,.341,22.878c.272,4.721.908,10.494-.757,14.8a262.869,262.869,0,0,1-2.167,27.919c.863,1.252-.082,3.192-.138,4.693a1.852,1.852,0,0,0-.267,2.036c-.919,6.289-1.845,9.238-8.69,5.868-.839.775-2.548-.343-3.29-.466-1.791-.517-3.112-2.294-4.645-3.432-2.933,3.1-2.311-18.551-2.452-20.619a.685.685,0,0,1-.126-.106c-3.493,1.827-7.41,3.478-11.424,3.154-.248,3.54,2.23,11.421.713,13.953.135,1.714.874,3.189.582,4.93.006.681.5,1.823-.466,2.026-1.686-.351-.707-3.28-1.261-4.6.129-1.91-1.765-6.365-.138-7.459-.3-3.028-.7-6.026-.908-9.067a8.309,8.309,0,0,1-2.708-1.125c.143.559.174,1.4-.6,1.429-1.028,0-.763-1.449-.98-2.159-3.378-17.589-1.555-35.571-.684-53.408" transform="translate(-124.176 -67.749)" fill="#333"/>
    <path id="パス_84553" data-name="パス 84553" d="M5.2,129.6c-7.506-7.595-5.06-8.359,3.614-4.47-1.181-.932-3.489-2.017-2.749-3.848.35-.531,1-.415,1.542-.316a23.109,23.109,0,0,1,7.787,2.9c4.309,2.434,6.388,4.9,10.01,9.4a.78.78,0,1,1,.774,1.35c.49,1.533.98,3.069,1.443,4.611.216-6.826,1.287-13.417,1.043-20.3a28.539,28.539,0,0,1-9.113-5.707c0,.005,0,.01-.005.015a5.711,5.711,0,0,0-.834-.914,6.1,6.1,0,0,0-.746-1.391,1.914,1.914,0,0,0-.766-.645c-.314-.92-.616-2-.941-2.813a.7.7,0,0,1-.117-1.214c-3.069-19.446-1.635-10.139,8.178-19.381a4.457,4.457,0,0,0-.577.831c1.091-.522,1.954-1.823,3.072-2.213a8.818,8.818,0,0,0,2.4-2.941c.068-.452.358-.966.856-1,.243-.483.46-.981.664-1.481-.54-.728-.1-2.209.955-2.048.91-1.167-.567-3.274,1.107-3.784,1.061-1.723-1.578-5.854.746-5.905-.03-.918-.022-1.869-.1-2.807-.11.045-.223.08-.33.134-.045-1.056-1-1.787-.906-2.722-.4-1.11-.786-2.234-1.12-3.371a1.035,1.035,0,0,1,.393-.038c-.3-.862-1.151-1.5-1.337-2.358a4.9,4.9,0,0,0,2.523.124c.219.691.459,1.371.695,2.057.207.594.406,1.188.61,1.783.732,2.176,1.653,9.21.535,10.281A21.448,21.448,0,0,1,24.319,89.1a.684.684,0,0,1-1.028-.211c-.46,2.8-4.6,3.239-6.8,4.559a12.763,12.763,0,0,0,.4,6.422c.285,4.2.5,8.975,3.608,12.212,1.32.147,1.881,2.03,3.179,2.583,1.254-1.054,2.339,1.446,3.438,1.859.694.578,1.528.326,2.211.822,1.268-2.138,3.239,1.214,4.625,1.82,5.138,3.672,10.906,7.574,14.291,12.868,11.121,12.2,24.173,41.144,19.423,57.214C66.437,197.14,58.337,203.537,50.7,205c-3.31-.074-5.607-2.793-8.491-4.036-.873,6.892.646,13.655,1.041,20.5v-.02c.751,5.205,1.489,10.447,2.628,15.622.872,3.8,2.714,7.861,1.8,11.774-.469,2.368-2.951,3.261-4.722,4.516-6.792,4.911-13.764,7.621-14.323-4.083-.141.021-.283.035-.425.054-.012-.167-.029-.333-.033-.5a1.95,1.95,0,0,0-.372-1.033,4.457,4.457,0,0,1,.728.087c-.01-.181-.017-.344-.026-.52-.525.027-.822-.629-.905-1.13-.522-.243-.559-.927-.639-1.43-.412-4.132-1.814-8.075-1.737-12.368a235.478,235.478,0,0,1-4.084-37.322c-1.158-8.5-.178-17.571.364-26.2a55.083,55.083,0,0,1-4.121-8.932c-2.716-5.2-4.341-10.845-8.39-15.185-3.061-2.021-14.544-14.775-3.487-9.638-4.233-2.629-9.776-9.167-.311-5.555m40.133,71.395a.811.811,0,0,1,1.227.737c6.565,5.347,14.256-3.479,18.265-8.207,1.689-1.568.778-6.417,2.2-6.791.048-2.1.373-4.357-.212-6.4-.232-.556-.475-1.458.184-1.808.182-2.036-2.062-6.217-.933-7.46a.245.245,0,0,0,.011.039,34.906,34.906,0,0,0-1.65-5.142c-.806-.611-2.851-3.351-1.06-3.8-.721-1.939-1.48-3.872-2.385-5.733-1.226-.13-3.464-3.62-1.192-3.707a35.74,35.74,0,0,0-3.215-5.391c-.9-.452-3.125-2.563-1.255-3.165a69.033,69.033,0,0,0-4.919-7.021c-.831-.359-2.662-1.619-1.913-2.653-.9-1.9-5.2-3.658-4.713-5.49-1.077-1.046-2.15-2.1-3.292-3.074-.817-.418-2.673-1.077-2.534-2.184a60.568,60.568,0,0,1-7.061-5.13.654.654,0,0,1-.763.732,169.576,169.576,0,0,1-1.042,18.364c-.069,1.18.376,3.334-.734,4.04,2.4,7.037.788,14.832,5.092,21.218,1.7.092,1.917,2.992,2.889,4.192,2.9-.62,4.251,3.567,6.377,5.073.3.307.589.6.935.942a.911.911,0,0,1,.285-.119c.671-3.712,1.256-7.671,1.95-11.347-.038-1.1-.1-2.193-.172-3.289-.5-.231-.54-.879-.61-1.365-.144-3.342-.385-6.584-.763-9.982-.9-.91.743-1.885,1.257-.777.587,5,1.429,10.033,1.721,15.085-.052.859.319,2.006-.394,2.656a84.953,84.953,0,0,1-1.761,9.888c.146,1.8,2.936,2.535,2.9,4.18-1.253,1.485-3.3-2.221-4-2.792-2.685-1.78-4.43-4.594-6.8-6.832-.015.005-.031.007-.046.012-1.519,4.432-7.389,6.561-10.982,9.428a17.332,17.332,0,0,0,3.054,6.53,19.35,19.35,0,0,0,4.012,6.694c1.164-1.7,3.543,2.17,3.159,3.258a36.2,36.2,0,0,0,3.128,3.255c1.1-.588,3.824,3.028,5.753,3.334m-23.183-9.3c1.535-.073.842,2.308.458,3.131a37.575,37.575,0,0,0,.121,4.9c1.522-.041,1.288,4.34.294,4.863a42,42,0,0,0,.342,4.741c2.355.375.218,5.181,1.06,6.953,1.78.635-.067,8.5,1.226,11.563,1.814-1.012,1.408,3.588,1.015,4.393A65.806,65.806,0,0,0,27.309,239c1.2,1.066.566,3.388,1,4.911.01,0,.015.012.024.017-.444-1.123,1.1-2.064,1.415-.7.307,10.354.76,17.636,12.088,9.132,2.379-1.641,4.795-2.26,4.733-5.67-3.208-15.138-6.971-30.983-5.72-46.663-3.657-.116-20.239-21.548-14.987-23.6-.334-.527-.6-1.191-.861-1.529a15.526,15.526,0,0,1-2.29-3.64c-.258,3.068-.4,6.137-.44,9.217,2.1-.082.648,4.464-.085,5.453-.094,1.9-.063,3.8-.04,5.759M10.373,137.164c.537.582,1.842,1.093,1.537,2.04,1.742,1.234.435,3.149-.972,1.26-2.1-2.724-5.543-3.707-8.549-5.1a28.75,28.75,0,0,0,4.746,5.8.19.19,0,0,0-.022-.025c.332.311.666.617,1,.923.922-.642,3.255,2.246,3.012,3.106.491.616.983,1.235,1.492,1.839,1.478.6,1.353,3.273,2.337,4.58,1.633.3,1.333,3.635,2.356,4.916,2.145,2.867,2.509,7.194,4.7,10.316,2.064,1.06,1.606,4.054,3.037,5.736,1.222.472,1.079,2.106,2.1,3.05,2.825-2.123,6.248-3.781,8.379-6.658a.716.716,0,0,1-.519-1.2c-.326-.654-.649-1.309-.984-1.96-2.561-1.447-3.125-5.513-4.643-8.063-.347-.669-1.488-1.756-.472-2.421a58.607,58.607,0,0,0-3.038-16.825c-.283-.94-.583-1.877-.879-2.815a.731.731,0,0,1-.515-1.115c-2.363-3.864-6.176-6.507-9.536-9.268-.958.661-1.958-.579-2.679-1.121a14.01,14.01,0,0,0-4.625-1.752c3.676,3.06,8.286,5.25,11.48,8.8a.73.73,0,0,1-.856.845c-4.968-2.983-9.986-6.08-15.651-7.7a31.314,31.314,0,0,0,4.28,4.838c1.691.131,3.926,2.241,4.81,3.7.94,1.33,4.913,2.9,4.089,4.645a.735.735,0,0,1-.882.06,32.256,32.256,0,0,0-13.144-7.584c2.5,2.7,5.815,4.713,8.609,7.143" transform="translate(47.43 -23.072)" fill="#333"/>
    <path id="パス_84554" data-name="パス 84554" d="M118.978,76.138c-.718-2.239,2.9-2.445,4.519-3.2a1.343,1.343,0,0,1-.16-.093,9.711,9.711,0,0,0,1.646-.506.554.554,0,0,1,.026.4,2.766,2.766,0,0,1,1.785.636,4.413,4.413,0,0,0-.4-.958,10.722,10.722,0,0,1,2.153,1.317,1.646,1.646,0,0,0-.125.914c.81.56,1.227,1.7.126,1.915-1.011-.337-1.589-1.519-2.642-2.033a.66.66,0,0,1-1.026-.224,5.211,5.211,0,0,0-2.261.425c1.371,2.425-3.408,1.3-3.15,3.747a1.463,1.463,0,0,1-.3,2.1c.1,2.829,4.934,2.167,3.588,3.913a1.659,1.659,0,0,0,.206.088.78.78,0,0,1,1.126.18l.251.008c1.1.274,5.516-1.49,3.955.888a9,9,0,0,0,1.181,2.842.865.865,0,0,1,1.3-.737c1.2,1.312.48,3.263,2.125,4.5.956-1.467,2.43.15,1.871,1.449a11.163,11.163,0,0,0,2.37,1.822c.95-.929,3.176.916,2.464,2a20,20,0,0,0,2.693,1.532.8.8,0,0,1,1.031.158c1.153.619,2.478.89,3.416,1.859a.145.145,0,0,1-.02-.011c1.573,1.13,3.264,6.829,2.435,8.508-.231,1.257-.014,6.276-1.721,6.109a10.439,10.439,0,0,1-1.3,2.428c.069.024.136.055.2.081a2.2,2.2,0,0,0-.981,1.106c-.076-.048-.153-.09-.228-.14-.269.347-.811,1.4-1.512,1.19-.134-.347-.273-.7-.412-1.043a3.518,3.518,0,0,1,.391-.5c-.12.016-.239.035-.357.059a2.391,2.391,0,0,0,.161-.4c.071.109.14.217.208.326a2.7,2.7,0,0,0,.221-.281c-.335-.9.466-1.286,1.1-1.209,1.439-1.072.964-5,2.458-4.529.676-6.028.78-11.338-6.326-12.7a46.31,46.31,0,0,1-8.827-6.752v0c-.591-.655-1.253-1.24-1.9-1.834a.779.779,0,0,1,.1-.225c-1.824-.872-3.13-3.19-3.549-5.237a20.28,20.28,0,0,1-3.366.172c-.07.122-.142.245-.208.37-.542-1.029-1.956-.66-2.049-2.06-3.822-.953-4.448-5.535-2.295-8.378" transform="translate(-103.517 -29.193)" fill="#333"/>
    <path id="パス_84556" data-name="パス 84556" d="M209.819,64.16a2.932,2.932,0,0,0,1.241.531c.568.1,1.412.293,1.783-.288a.768.768,0,0,0-.655-1.112.7.7,0,0,0-.791.048,20.063,20.063,0,0,1-1.95-.919.774.774,0,0,0-.745-.132c-.093-.146-.18-.294-.262-.447l-.077-.16a.821.821,0,0,0-1.186-.759c-.774.53.019,1.473.331,2.059.492.663,1.419,1.857,2.311,1.178" transform="translate(280.835 -24.304) rotate(149)" fill="#333"/>
    <path id="パス_84557" data-name="パス 84557" d="M196.091,137.653a2.635,2.635,0,0,0-1.536.281c-.631.069-1.257.866-1.117,1.279a.215.215,0,0,0,.019.034,1.272,1.272,0,0,1-.084.146c-.077.145.031.31.259.35.354.054.46-.163.559-.362a.293.293,0,0,0,.252-.23c.251-.109.209-.352-.04-.457a.493.493,0,0,0,.631-.349.874.874,0,0,1,.474-.164,1.011,1.011,0,0,0,.928.009.961.961,0,0,0,.692.067c.383.041.509.373.884.393.329,0,.487-.285.257-.44a3.215,3.215,0,0,0-2.179-.557" transform="translate(245.953 206.068) rotate(-177)" fill="#333" stroke="#333" stroke-width="0.5"/>
  </g>
</svg>
