<svg xmlns="http://www.w3.org/2000/svg" xmlns:xlink="http://www.w3.org/1999/xlink" width="268" height="9" viewBox="0 0 268 9">
  <defs>
    <clipPath id="clip-path">
      <rect width="268" height="9" fill="none"/>
    </clipPath>
  </defs>
  <g id="リピートグリッド_12" data-name="リピートグリッド 12" clip-path="url(#clip-path)">
    <g transform="translate(-547.432 -12226)">
      <path id="_1_10_200_4" data-name="1_10_200_4" d="M0-2l.06.038.06.038.06.038.06.038.06.038.06.038.06.038L.48-1.7l.06.037.06.037.06.037.06.037.06.037.06.037.06.037L.96-1.4l.06.037.06.037.06.037.06.037.06.036.06.036.06.036.06.036.06.036.06.036L1.62-1l.06.035.06.035L1.8-.9l.06.035.06.035.06.035.06.034.06.034.06.034.06.034.06.034.06.033.06.033.06.033.06.033.06.032.06.032.06.032.06.032.06.031L2.88-.3l.06.031L3-.237l.06.03.06.03.06.03.06.029.06.029.06.029.06.029L3.48,0l.06.028L3.6.054l.06.027.06.027.06.027.06.026L3.9.187l.06.026.06.025.06.025.06.025L4.2.312l.06.024.06.023.06.023L4.44.4,4.5.427l.06.022.06.022.06.021.06.021.06.02.06.02.06.02.06.019.06.019L5.1.629l.06.018.06.018.06.017L5.34.7,5.4.714,5.46.73l.06.015.06.015.06.015L5.7.789,5.76.8l.06.013.06.013.06.012L6,.853l.06.011.06.011.06.011L6.24.9l.06.01.06.009.06.009.06.008L6.54.94,6.6.947l.06.007L6.72.96l.06.006.06.005.06,0,.06,0,.06,0,.06,0,.06,0,.06,0,.06,0,.06,0h.36l.06,0,.06,0,.06,0,.06,0,.06,0,.06,0,.06,0,.06,0L8.22.966,8.28.96,8.34.954,8.4.947,8.46.94,8.52.932,8.58.924,8.64.915,8.7.906,8.76.9l.06-.01L8.88.876,8.94.865,9,.853,9.06.841,9.12.829,9.18.816,9.24.8,9.3.789,9.36.775,9.42.761,9.48.746,9.54.73,9.6.714,9.66.7,9.72.682,9.78.664,9.84.647,9.9.629,9.96.611l.06-.019.06-.019.06-.02.06-.02.06-.02.06-.021.06-.021.06-.022L10.5.427,10.56.4l.06-.023.06-.023.06-.023L10.8.312l.06-.024.06-.025.06-.025.06-.025L11.1.187l.06-.026.06-.026.06-.027.06-.027L11.4.054l.06-.028L11.52,0l.06-.028.06-.029.06-.029.06-.029.06-.029.06-.03.06-.03L12-.237l.06-.031L12.12-.3l.06-.031.06-.031.06-.032.06-.032.06-.032.06-.032.06-.033.06-.033.06-.033.06-.033.06-.034.06-.034.06-.034.06-.034.06-.034.06-.035.06-.035L13.2-.9l.06-.035.06-.035L13.38-1l.06-.036.06-.036.06-.036.06-.036.06-.036.06-.036.06-.036.06-.037.06-.037.06-.037.06-.037.06-.037.06-.037.06-.037.06-.037.06-.037.06-.037.06-.037.06-.037.06-.038.06-.038.06-.038.06-.038.06-.038.06-.038.06-.038L15-2l.06-.038.06-.038.06-.038.06-.038.06-.038.06-.038.06-.038.06-.038.06-.037.06-.037.06-.037.06-.037.06-.037.06-.037.06-.037.06-.037.06-.037.06-.037.06-.037.06-.037.06-.036.06-.036.06-.036.06-.036.06-.036.06-.036L16.62-3l.06-.035.06-.035L16.8-3.1l.06-.035.06-.035.06-.035.06-.034.06-.034.06-.034.06-.034.06-.034.06-.033.06-.033.06-.033.06-.033.06-.032.06-.032.06-.032.06-.032.06-.031.06-.031.06-.031L18-3.763l.06-.03.06-.03.06-.03.06-.029.06-.029.06-.029.06-.029L18.48-4l.06-.028.06-.028.06-.027.06-.027.06-.027.06-.026.06-.026.06-.026.06-.025.06-.025.06-.025.06-.024.06-.024.06-.023.06-.023.06-.023.06-.022.06-.022.06-.022.06-.021.06-.021.06-.02.06-.02.06-.02.06-.019.06-.019.06-.018.06-.018.06-.018.06-.017.06-.017.06-.016.06-.016.06-.015.06-.015.06-.015.06-.014.06-.014.06-.013.06-.013.06-.012L21-4.853l.06-.011.06-.011.06-.011.06-.01.06-.01.06-.009.06-.009.06-.008.06-.008.06-.007.06-.007.06-.006.06-.006.06-.005.06,0,.06,0,.06,0,.06,0,.06,0,.06,0,.06,0,.06,0h.36l.06,0,.06,0,.06,0,.06,0,.06,0,.06,0,.06,0,.06,0,.06.005.06.006.06.006.06.007.06.007.06.008.06.008.06.009.06.009.06.01.06.01.06.011.06.011.06.011.06.012.06.012.06.013.06.013.06.014.06.014.06.015.06.015.06.015.06.016.06.016.06.017.06.017.06.018.06.018.06.018.06.019.06.019.06.02.06.02.06.02.06.021.06.021.06.022.06.022.06.022.06.023.06.023.06.023.06.024.06.024.06.025.06.025.06.025.06.026.06.026.06.026.06.027.06.027.06.027.06.028L26.52-4l.06.028.06.029.06.029.06.029.06.029.06.03.06.03.06.03.06.031.06.031.06.031.06.031.06.032.06.032.06.032.06.032.06.033.06.033.06.033.06.033.06.034.06.034.06.034.06.034.06.034.06.035.06.035.06.035.06.035.06.035L28.38-3l.06.036.06.036.06.036.06.036.06.036.06.036.06.036.06.037.06.037.06.037.06.037.06.037.06.037.06.037.06.037.06.037.06.037.06.037.06.037.06.038.06.038.06.038.06.038.06.038.06.038.06.038L30-2l.06.038.06.038.06.038.06.038.06.038.06.038.06.038.06.038.06.037.06.037.06.037.06.037.06.037.06.037.06.037.06.037.06.037.06.037.06.037.06.037.06.036.06.036.06.036.06.036.06.036.06.036L31.62-1l.06.035.06.035L31.8-.9l.06.035.06.035.06.035.06.034.06.034.06.034.06.034.06.034.06.033.06.033.06.033.06.033.06.032.06.032.06.032.06.032.06.031.06.031.06.031L33-.237l.06.03.06.03.06.03.06.029.06.029.06.029.06.029L33.48,0l.06.028.06.028.06.027.06.027.06.027.06.026.06.026.06.026.06.025.06.025.06.025.06.024.06.024.06.023.06.023L34.44.4l.06.022.06.022.06.022.06.021.06.021.06.02.06.02.06.02.06.019.06.019.06.018.06.018.06.018.06.017L35.34.7l.06.016.06.016.06.015.06.015.06.015.06.014L35.76.8l.06.013.06.013.06.012L36,.853l.06.011.06.011.06.011.06.01.06.01.06.009.06.009.06.008.06.008.06.007.06.007.06.006.06.006.06.005.06,0,.06,0,.06,0,.06,0,.06,0,.06,0,.06,0,.06,0h.36l.06,0,.06,0,.06,0,.06,0,.06,0,.06,0,.06,0,.06,0,.06-.005L38.28.96l.06-.006L38.4.947,38.46.94l.06-.008.06-.008.06-.009L38.7.906,38.76.9l.06-.01.06-.011.06-.011L39,.853l.06-.012.06-.012.06-.013L39.24.8,39.3.789l.06-.014.06-.015.06-.015L39.54.73,39.6.714,39.66.7l.06-.017.06-.017.06-.018L39.9.629l.06-.018.06-.019.06-.019.06-.02.06-.02.06-.02.06-.021.06-.021.06-.022L40.5.427,40.56.4l.06-.023.06-.023.06-.023L40.8.312l.06-.024.06-.025.06-.025.06-.025L41.1.187l.06-.026.06-.026.06-.027.06-.027L41.4.054l.06-.028L41.52,0l.06-.028.06-.029.06-.029.06-.029.06-.029.06-.03.06-.03L42-.237l.06-.031L42.12-.3l.06-.031.06-.031.06-.032.06-.032.06-.032.06-.032.06-.033.06-.033.06-.033.06-.033.06-.034.06-.034.06-.034.06-.034.06-.034.06-.035.06-.035L43.2-.9l.06-.035.06-.035L43.38-1l.06-.036.06-.036.06-.036.06-.036.06-.036.06-.036.06-.036.06-.037.06-.037.06-.037.06-.037.06-.037.06-.037.06-.037.06-.037.06-.037.06-.037.06-.037.06-.037.06-.038.06-.038.06-.038.06-.038.06-.038.06-.038.06-.038L45-2l.06-.038.06-.038.06-.038.06-.038.06-.038.06-.038.06-.038.06-.038.06-.037.06-.037.06-.037.06-.037.06-.037.06-.037.06-.037.06-.037.06-.037.06-.037.06-.037.06-.037.06-.036.06-.036.06-.036.06-.036.06-.036.06-.036L46.62-3l.06-.035.06-.035L46.8-3.1l.06-.035.06-.035.06-.035.06-.034.06-.034.06-.034.06-.034.06-.034.06-.033.06-.033.06-.033.06-.033.06-.032.06-.032.06-.032.06-.032.06-.031.06-.031.06-.031L48-3.763l.06-.03.06-.03.06-.03.06-.029.06-.029.06-.029.06-.029L48.48-4l.06-.028.06-.028.06-.027.06-.027.06-.027.06-.026.06-.026.06-.026.06-.025.06-.025.06-.025.06-.024.06-.024.06-.023.06-.023.06-.023.06-.022.06-.022.06-.022.06-.021.06-.021.06-.02.06-.02.06-.02.06-.019.06-.019.06-.018.06-.018.06-.018.06-.017.06-.017.06-.016.06-.016.06-.015.06-.015.06-.015.06-.014.06-.014.06-.013.06-.013.06-.012L51-4.853l.06-.011.06-.011.06-.011.06-.01.06-.01.06-.009.06-.009.06-.008.06-.008.06-.007.06-.007.06-.006.06-.006.06-.005.06,0,.06,0,.06,0,.06,0,.06,0,.06,0,.06,0,.06,0h.36l.06,0,.06,0,.06,0,.06,0,.06,0,.06,0,.06,0,.06,0,.06.005.06.006.06.006.06.007.06.007.06.008.06.008.06.009.06.009.06.01.06.01.06.011.06.011.06.011.06.012.06.012.06.013.06.013.06.014.06.014.06.015.06.015.06.015.06.016.06.016.06.017.06.017.06.018.06.018.06.018.06.019.06.019.06.02.06.02.06.02.06.021.06.021.06.022.06.022.06.022.06.023.06.023.06.023.06.024.06.024.06.025.06.025.06.025.06.026.06.026.06.026.06.027.06.027.06.027.06.028L56.52-4l.06.028.06.029.06.029.06.029.06.029.06.03.06.03.06.03.06.031.06.031.06.031.06.031.06.032.06.032.06.032.06.032.06.033.06.033.06.033.06.033.06.034.06.034.06.034.06.034.06.034.06.035.06.035.06.035.06.035.06.035L58.38-3l.06.036.06.036.06.036.06.036.06.036.06.036.06.036.06.037.06.037.06.037.06.037.06.037.06.037.06.037.06.037.06.037.06.037.06.037.06.037.06.038.06.038.06.038.06.038.06.038.06.038.06.038L60-2l.06.038.06.038.06.038.06.038.06.038.06.038.06.038.06.038.06.037.06.037.06.037.06.037.06.037.06.037.06.037.06.037.06.037.06.037.06.037.06.037.06.036.06.036.06.036.06.036.06.036.06.036L61.62-1l.06.035.06.035L61.8-.9l.06.035.06.035.06.035.06.034.06.034.06.034.06.034.06.034.06.033.06.033.06.033.06.033.06.032.06.032.06.032.06.032.06.031.06.031.06.031L63-.237l.06.03.06.03.06.03.06.029.06.029.06.029.06.029L63.48,0l.06.028.06.028.06.027.06.027.06.027.06.026.06.026.06.026.06.025.06.025.06.025.06.024.06.024.06.023.06.023L64.44.4l.06.022.06.022.06.022.06.021.06.021.06.02.06.02.06.02.06.019.06.019.06.018.06.018.06.018.06.017L65.34.7l.06.016.06.016.06.015.06.015.06.015.06.014L65.76.8l.06.013.06.013.06.012L66,.853l.06.011.06.011.06.011.06.01.06.01.06.009.06.009.06.008.06.008.06.007.06.007.06.006.06.006.06.005.06,0,.06,0,.06,0,.06,0,.06,0,.06,0,.06,0,.06,0h.36l.06,0,.06,0,.06,0,.06,0,.06,0,.06,0,.06,0,.06,0,.06-.005L68.28.96l.06-.006L68.4.947,68.46.94l.06-.008.06-.008.06-.009L68.7.906,68.76.9l.06-.01.06-.011.06-.011L69,.853l.06-.012.06-.012.06-.013L69.24.8,69.3.789l.06-.014.06-.015.06-.015L69.54.73,69.6.714,69.66.7l.06-.017.06-.017.06-.018L69.9.629l.06-.018.06-.019.06-.019.06-.02.06-.02.06-.02.06-.021.06-.021.06-.022L70.5.427,70.56.4l.06-.023.06-.023.06-.023L70.8.312l.06-.024.06-.025.06-.025.06-.025L71.1.187l.06-.026.06-.026.06-.027.06-.027L71.4.054l.06-.028L71.52,0l.06-.028.06-.029.06-.029.06-.029.06-.029.06-.03.06-.03L72-.237l.06-.031L72.12-.3l.06-.031.06-.031.06-.032.06-.032.06-.032.06-.032.06-.033.06-.033.06-.033.06-.033.06-.034.06-.034.06-.034.06-.034.06-.034.06-.035.06-.035L73.2-.9l.06-.035.06-.035L73.38-1l.06-.036.06-.036.06-.036.06-.036.06-.036.06-.036.06-.036.06-.037.06-.037.06-.037.06-.037.06-.037.06-.037.06-.037.06-.037.06-.037.06-.037.06-.037.06-.037.06-.038.06-.038.06-.038.06-.038.06-.038.06-.038.06-.038L75-2l.06-.038.06-.038.06-.038.06-.038.06-.038.06-.038.06-.038.06-.038.06-.037.06-.037.06-.037.06-.037.06-.037.06-.037.06-.037.06-.037.06-.037.06-.037.06-.037.06-.037.06-.036.06-.036.06-.036.06-.036.06-.036.06-.036L76.62-3l.06-.035.06-.035L76.8-3.1l.06-.035.06-.035.06-.035.06-.034.06-.034.06-.034.06-.034.06-.034.06-.033.06-.033.06-.033.06-.033.06-.032.06-.032.06-.032.06-.032.06-.031.06-.031.06-.031L78-3.763l.06-.03.06-.03.06-.03.06-.029.06-.029.06-.029.06-.029L78.48-4l.06-.028.06-.028.06-.027.06-.027.06-.027.06-.026.06-.026.06-.026.06-.025.06-.025.06-.025.06-.024.06-.024.06-.023.06-.023.06-.023.06-.022.06-.022.06-.022.06-.021.06-.021.06-.02.06-.02.06-.02.06-.019.06-.019.06-.018.06-.018.06-.018.06-.017.06-.017.06-.016.06-.016.06-.015.06-.015.06-.015.06-.014.06-.014.06-.013.06-.013.06-.012L81-4.853l.06-.011.06-.011.06-.011.06-.01.06-.01.06-.009.06-.009.06-.008.06-.008.06-.007.06-.007.06-.006.06-.006.06-.005.06,0,.06,0,.06,0,.06,0,.06,0,.06,0,.06,0,.06,0h.36l.06,0,.06,0,.06,0,.06,0,.06,0,.06,0,.06,0,.06,0,.06.005.06.006.06.006.06.007.06.007.06.008.06.008.06.009.06.009.06.01.06.01.06.011.06.011.06.011.06.012.06.012.06.013.06.013.06.014.06.014.06.015.06.015.06.015.06.016.06.016.06.017.06.017.06.018.06.018.06.018.06.019.06.019.06.02.06.02.06.02.06.021.06.021.06.022.06.022.06.022.06.023.06.023.06.023.06.024.06.024.06.025.06.025.06.025.06.026.06.026.06.026.06.027.06.027.06.027.06.028L86.52-4l.06.028.06.029.06.029.06.029.06.029.06.03.06.03.06.03.06.031.06.031.06.031.06.031.06.032.06.032.06.032.06.032.06.033.06.033.06.033.06.033.06.034.06.034.06.034.06.034.06.034.06.035.06.035.06.035.06.035.06.035L88.38-3l.06.036.06.036.06.036.06.036.06.036.06.036.06.036.06.037.06.037.06.037.06.037.06.037.06.037.06.037.06.037.06.037.06.037.06.037.06.037.06.038.06.038.06.038.06.038.06.038.06.038.06.038L90-2l.06.038.06.038.06.038.06.038.06.038.06.038.06.038.06.038.06.037.06.037.06.037.06.037.06.037.06.037.06.037.06.037.06.037.06.037.06.037.06.037.06.036.06.036.06.036.06.036.06.036.06.036L91.62-1l.06.035.06.035L91.8-.9l.06.035.06.035.06.035.06.034.06.034.06.034.06.034.06.034.06.033.06.033.06.033.06.033.06.032.06.032.06.032.06.032.06.031.06.031.06.031L93-.237l.06.03.06.03.06.03.06.029.06.029.06.029.06.029L93.48,0l.06.028.06.028.06.027.06.027.06.027.06.026.06.026.06.026.06.025.06.025.06.025.06.024.06.024.06.023.06.023L94.44.4l.06.022.06.022.06.022.06.021.06.021.06.02.06.02.06.02.06.019.06.019.06.018.06.018.06.018.06.017L95.34.7l.06.016.06.016.06.015.06.015.06.015.06.014L95.76.8l.06.013.06.013.06.012L96,.853l.06.011.06.011.06.011.06.01.06.01.06.009.06.009.06.008.06.008.06.007.06.007.06.006.06.006.06.005.06,0,.06,0,.06,0,.06,0,.06,0,.06,0,.06,0,.06,0h.36l.06,0,.06,0,.06,0,.06,0,.06,0,.06,0,.06,0,.06,0,.06-.005L98.28.96l.06-.006L98.4.947,98.46.94l.06-.008.06-.008.06-.009L98.7.906,98.76.9l.06-.01.06-.011.06-.011L99,.853l.06-.012.06-.012.06-.013L99.24.8,99.3.789l.06-.014.06-.015.06-.015L99.54.73,99.6.714,99.66.7l.06-.017.06-.017.06-.018L99.9.629l.06-.018.06-.019.06-.019.06-.02.06-.02.06-.02.06-.021.06-.021.06-.022.06-.022L100.56.4l.06-.023.06-.023.06-.023.06-.024.06-.024.06-.025.06-.025.06-.025.06-.026.06-.026.06-.026.06-.027.06-.027.06-.027.06-.028L101.52,0l.06-.028.06-.029.06-.029.06-.029.06-.029.06-.03.06-.03.06-.03.06-.031.06-.031.06-.031.06-.031.06-.032.06-.032.06-.032.06-.032.06-.033.06-.033.06-.033.06-.033.06-.034.06-.034.06-.034.06-.034.06-.034.06-.035.06-.035L103.2-.9l.06-.035.06-.035L103.38-1l.06-.036.06-.036.06-.036.06-.036.06-.036.06-.036.06-.036.06-.037.06-.037.06-.037.06-.037.06-.037.06-.037.06-.037.06-.037.06-.037.06-.037.06-.037.06-.037.06-.038.06-.038.06-.038.06-.038.06-.038.06-.038.06-.038L105-2l.06-.038.06-.038.06-.038.06-.038.06-.038.06-.038.06-.038.06-.038.06-.037.06-.037.06-.037.06-.037.06-.037.06-.037.06-.037.06-.037.06-.037.06-.037.06-.037.06-.037.06-.036.06-.036.06-.036.06-.036.06-.036.06-.036L106.62-3l.06-.035.06-.035.06-.035.06-.035.06-.035.06-.035.06-.034.06-.034.06-.034.06-.034.06-.034.06-.033.06-.033.06-.033.06-.033.06-.032.06-.032.06-.032.06-.032.06-.031.06-.031.06-.031.06-.031.06-.03.06-.03.06-.03.06-.029.06-.029.06-.029.06-.029L108.48-4l.06-.028.06-.028.06-.027.06-.027.06-.027.06-.026.06-.026.06-.026.06-.025.06-.025.06-.025.06-.024.06-.024.06-.023.06-.023.06-.023.06-.022.06-.022.06-.022.06-.021.06-.021.06-.02.06-.02.06-.02.06-.019.06-.019.06-.018.06-.018.06-.018.06-.017.06-.017.06-.016.06-.016.06-.015.06-.015.06-.015.06-.014.06-.014.06-.013.06-.013.06-.012.06-.012.06-.011.06-.011.06-.011.06-.01.06-.01.06-.009.06-.009.06-.008.06-.008.06-.007.06-.007.06-.006.06-.006.06-.005.06,0,.06,0,.06,0,.06,0,.06,0,.06,0,.06,0,.06,0h.36l.06,0,.06,0,.06,0,.06,0,.06,0,.06,0,.06,0,.06,0,.06.005.06.006.06.006.06.007.06.007.06.008.06.008.06.009.06.009.06.01.06.01.06.011.06.011.06.011.06.012.06.012.06.013.06.013.06.014.06.014.06.015.06.015.06.015.06.016.06.016.06.017.06.017.06.018.06.018.06.018.06.019.06.019.06.02.06.02.06.02.06.021.06.021.06.022.06.022.06.022.06.023.06.023.06.023.06.024.06.024.06.025.06.025.06.025.06.026.06.026.06.026.06.027.06.027.06.027.06.028.06.028.06.028.06.029.06.029.06.029.06.029.06.03.06.03.06.03.06.031.06.031.06.031.06.031.06.032.06.032.06.032.06.032.06.033.06.033.06.033.06.033.06.034.06.034.06.034.06.034.06.034.06.035.06.035.06.035.06.035.06.035.06.035.06.036.06.036.06.036.06.036.06.036.06.036.06.036.06.037.06.037.06.037.06.037.06.037.06.037.06.037.06.037.06.037.06.037.06.037.06.037.06.038.06.038.06.038.06.038.06.038.06.038.06.038L120-2" transform="translate(549.5 12232.5)" fill="none" stroke="#fcd214" stroke-linecap="round" stroke-linejoin="round" stroke-width="3"/>
    </g>
    <g transform="translate(-427.432 -12226)">
      <path id="_1_10_200_4-2" data-name="1_10_200_4" d="M0-2l.06.038.06.038.06.038.06.038.06.038.06.038.06.038L.48-1.7l.06.037.06.037.06.037.06.037.06.037.06.037.06.037L.96-1.4l.06.037.06.037.06.037.06.037.06.036.06.036.06.036.06.036.06.036.06.036L1.62-1l.06.035.06.035L1.8-.9l.06.035.06.035.06.035.06.034.06.034.06.034.06.034.06.034.06.033.06.033.06.033.06.033.06.032.06.032.06.032.06.032.06.031L2.88-.3l.06.031L3-.237l.06.03.06.03.06.03.06.029.06.029.06.029.06.029L3.48,0l.06.028L3.6.054l.06.027.06.027.06.027.06.026L3.9.187l.06.026.06.025.06.025.06.025L4.2.312l.06.024.06.023.06.023L4.44.4,4.5.427l.06.022.06.022.06.021.06.021.06.02.06.02.06.02.06.019.06.019L5.1.629l.06.018.06.018.06.017L5.34.7,5.4.714,5.46.73l.06.015.06.015.06.015L5.7.789,5.76.8l.06.013.06.013.06.012L6,.853l.06.011.06.011.06.011L6.24.9l.06.01.06.009.06.009.06.008L6.54.94,6.6.947l.06.007L6.72.96l.06.006.06.005.06,0,.06,0,.06,0,.06,0,.06,0,.06,0,.06,0,.06,0h.36l.06,0,.06,0,.06,0,.06,0,.06,0,.06,0,.06,0,.06,0L8.22.966,8.28.96,8.34.954,8.4.947,8.46.94,8.52.932,8.58.924,8.64.915,8.7.906,8.76.9l.06-.01L8.88.876,8.94.865,9,.853,9.06.841,9.12.829,9.18.816,9.24.8,9.3.789,9.36.775,9.42.761,9.48.746,9.54.73,9.6.714,9.66.7,9.72.682,9.78.664,9.84.647,9.9.629,9.96.611l.06-.019.06-.019.06-.02.06-.02.06-.02.06-.021.06-.021.06-.022L10.5.427,10.56.4l.06-.023.06-.023.06-.023L10.8.312l.06-.024.06-.025.06-.025.06-.025L11.1.187l.06-.026.06-.026.06-.027.06-.027L11.4.054l.06-.028L11.52,0l.06-.028.06-.029.06-.029.06-.029.06-.029.06-.03.06-.03L12-.237l.06-.031L12.12-.3l.06-.031.06-.031.06-.032.06-.032.06-.032.06-.032.06-.033.06-.033.06-.033.06-.033.06-.034.06-.034.06-.034.06-.034.06-.034.06-.035.06-.035L13.2-.9l.06-.035.06-.035L13.38-1l.06-.036.06-.036.06-.036.06-.036.06-.036.06-.036.06-.036.06-.037.06-.037.06-.037.06-.037.06-.037.06-.037.06-.037.06-.037.06-.037.06-.037.06-.037.06-.037.06-.038.06-.038.06-.038.06-.038.06-.038.06-.038.06-.038L15-2l.06-.038.06-.038.06-.038.06-.038.06-.038.06-.038.06-.038.06-.038.06-.037.06-.037.06-.037.06-.037.06-.037.06-.037.06-.037.06-.037.06-.037.06-.037.06-.037.06-.037.06-.036.06-.036.06-.036.06-.036.06-.036.06-.036L16.62-3l.06-.035.06-.035L16.8-3.1l.06-.035.06-.035.06-.035.06-.034.06-.034.06-.034.06-.034.06-.034.06-.033.06-.033.06-.033.06-.033.06-.032.06-.032.06-.032.06-.032.06-.031.06-.031.06-.031L18-3.763l.06-.03.06-.03.06-.03.06-.029.06-.029.06-.029.06-.029L18.48-4l.06-.028.06-.028.06-.027.06-.027.06-.027.06-.026.06-.026.06-.026.06-.025.06-.025.06-.025.06-.024.06-.024.06-.023.06-.023.06-.023.06-.022.06-.022.06-.022.06-.021.06-.021.06-.02.06-.02.06-.02.06-.019.06-.019.06-.018.06-.018.06-.018.06-.017.06-.017.06-.016.06-.016.06-.015.06-.015.06-.015.06-.014.06-.014.06-.013.06-.013.06-.012L21-4.853l.06-.011.06-.011.06-.011.06-.01.06-.01.06-.009.06-.009.06-.008.06-.008.06-.007.06-.007.06-.006.06-.006.06-.005.06,0,.06,0,.06,0,.06,0,.06,0,.06,0,.06,0,.06,0h.36l.06,0,.06,0,.06,0,.06,0,.06,0,.06,0,.06,0,.06,0,.06.005.06.006.06.006.06.007.06.007.06.008.06.008.06.009.06.009.06.01.06.01.06.011.06.011.06.011.06.012.06.012.06.013.06.013.06.014.06.014.06.015.06.015.06.015.06.016.06.016.06.017.06.017.06.018.06.018.06.018.06.019.06.019.06.02.06.02.06.02.06.021.06.021.06.022.06.022.06.022.06.023.06.023.06.023.06.024.06.024.06.025.06.025.06.025.06.026.06.026.06.026.06.027.06.027.06.027.06.028L26.52-4l.06.028.06.029.06.029.06.029.06.029.06.03.06.03.06.03.06.031.06.031.06.031.06.031.06.032.06.032.06.032.06.032.06.033.06.033.06.033.06.033.06.034.06.034.06.034.06.034.06.034.06.035.06.035.06.035.06.035.06.035L28.38-3l.06.036.06.036.06.036.06.036.06.036.06.036.06.036.06.037.06.037.06.037.06.037.06.037.06.037.06.037.06.037.06.037.06.037.06.037.06.037.06.038.06.038.06.038.06.038.06.038.06.038.06.038L30-2l.06.038.06.038.06.038.06.038.06.038.06.038.06.038.06.038.06.037.06.037.06.037.06.037.06.037.06.037.06.037.06.037.06.037.06.037.06.037.06.037.06.036.06.036.06.036.06.036.06.036.06.036L31.62-1l.06.035.06.035L31.8-.9l.06.035.06.035.06.035.06.034.06.034.06.034.06.034.06.034.06.033.06.033.06.033.06.033.06.032.06.032.06.032.06.032.06.031.06.031.06.031L33-.237l.06.03.06.03.06.03.06.029.06.029.06.029.06.029L33.48,0l.06.028.06.028.06.027.06.027.06.027.06.026.06.026.06.026.06.025.06.025.06.025.06.024.06.024.06.023.06.023L34.44.4l.06.022.06.022.06.022.06.021.06.021.06.02.06.02.06.02.06.019.06.019.06.018.06.018.06.018.06.017L35.34.7l.06.016.06.016.06.015.06.015.06.015.06.014L35.76.8l.06.013.06.013.06.012L36,.853l.06.011.06.011.06.011.06.01.06.01.06.009.06.009.06.008.06.008.06.007.06.007.06.006.06.006.06.005.06,0,.06,0,.06,0,.06,0,.06,0,.06,0,.06,0,.06,0h.36l.06,0,.06,0,.06,0,.06,0,.06,0,.06,0,.06,0,.06,0,.06-.005L38.28.96l.06-.006L38.4.947,38.46.94l.06-.008.06-.008.06-.009L38.7.906,38.76.9l.06-.01.06-.011.06-.011L39,.853l.06-.012.06-.012.06-.013L39.24.8,39.3.789l.06-.014.06-.015.06-.015L39.54.73,39.6.714,39.66.7l.06-.017.06-.017.06-.018L39.9.629l.06-.018.06-.019.06-.019.06-.02.06-.02.06-.02.06-.021.06-.021.06-.022L40.5.427,40.56.4l.06-.023.06-.023.06-.023L40.8.312l.06-.024.06-.025.06-.025.06-.025L41.1.187l.06-.026.06-.026.06-.027.06-.027L41.4.054l.06-.028L41.52,0l.06-.028.06-.029.06-.029.06-.029.06-.029.06-.03.06-.03L42-.237l.06-.031L42.12-.3l.06-.031.06-.031.06-.032.06-.032.06-.032.06-.032.06-.033.06-.033.06-.033.06-.033.06-.034.06-.034.06-.034.06-.034.06-.034.06-.035.06-.035L43.2-.9l.06-.035.06-.035L43.38-1l.06-.036.06-.036.06-.036.06-.036.06-.036.06-.036.06-.036.06-.037.06-.037.06-.037.06-.037.06-.037.06-.037.06-.037.06-.037.06-.037.06-.037.06-.037.06-.037.06-.038.06-.038.06-.038.06-.038.06-.038.06-.038.06-.038L45-2l.06-.038.06-.038.06-.038.06-.038.06-.038.06-.038.06-.038.06-.038.06-.037.06-.037.06-.037.06-.037.06-.037.06-.037.06-.037.06-.037.06-.037.06-.037.06-.037.06-.037.06-.036.06-.036.06-.036.06-.036.06-.036.06-.036L46.62-3l.06-.035.06-.035L46.8-3.1l.06-.035.06-.035.06-.035.06-.034.06-.034.06-.034.06-.034.06-.034.06-.033.06-.033.06-.033.06-.033.06-.032.06-.032.06-.032.06-.032.06-.031.06-.031.06-.031L48-3.763l.06-.03.06-.03.06-.03.06-.029.06-.029.06-.029.06-.029L48.48-4l.06-.028.06-.028.06-.027.06-.027.06-.027.06-.026.06-.026.06-.026.06-.025.06-.025.06-.025.06-.024.06-.024.06-.023.06-.023.06-.023.06-.022.06-.022.06-.022.06-.021.06-.021.06-.02.06-.02.06-.02.06-.019.06-.019.06-.018.06-.018.06-.018.06-.017.06-.017.06-.016.06-.016.06-.015.06-.015.06-.015.06-.014.06-.014.06-.013.06-.013.06-.012L51-4.853l.06-.011.06-.011.06-.011.06-.01.06-.01.06-.009.06-.009.06-.008.06-.008.06-.007.06-.007.06-.006.06-.006.06-.005.06,0,.06,0,.06,0,.06,0,.06,0,.06,0,.06,0,.06,0h.36l.06,0,.06,0,.06,0,.06,0,.06,0,.06,0,.06,0,.06,0,.06.005.06.006.06.006.06.007.06.007.06.008.06.008.06.009.06.009.06.01.06.01.06.011.06.011.06.011.06.012.06.012.06.013.06.013.06.014.06.014.06.015.06.015.06.015.06.016.06.016.06.017.06.017.06.018.06.018.06.018.06.019.06.019.06.02.06.02.06.02.06.021.06.021.06.022.06.022.06.022.06.023.06.023.06.023.06.024.06.024.06.025.06.025.06.025.06.026.06.026.06.026.06.027.06.027.06.027.06.028L56.52-4l.06.028.06.029.06.029.06.029.06.029.06.03.06.03.06.03.06.031.06.031.06.031.06.031.06.032.06.032.06.032.06.032.06.033.06.033.06.033.06.033.06.034.06.034.06.034.06.034.06.034.06.035.06.035.06.035.06.035.06.035L58.38-3l.06.036.06.036.06.036.06.036.06.036.06.036.06.036.06.037.06.037.06.037.06.037.06.037.06.037.06.037.06.037.06.037.06.037.06.037.06.037.06.038.06.038.06.038.06.038.06.038.06.038.06.038L60-2l.06.038.06.038.06.038.06.038.06.038.06.038.06.038.06.038.06.037.06.037.06.037.06.037.06.037.06.037.06.037.06.037.06.037.06.037.06.037.06.037.06.036.06.036.06.036.06.036.06.036.06.036L61.62-1l.06.035.06.035L61.8-.9l.06.035.06.035.06.035.06.034.06.034.06.034.06.034.06.034.06.033.06.033.06.033.06.033.06.032.06.032.06.032.06.032.06.031.06.031.06.031L63-.237l.06.03.06.03.06.03.06.029.06.029.06.029.06.029L63.48,0l.06.028.06.028.06.027.06.027.06.027.06.026.06.026.06.026.06.025.06.025.06.025.06.024.06.024.06.023.06.023L64.44.4l.06.022.06.022.06.022.06.021.06.021.06.02.06.02.06.02.06.019.06.019.06.018.06.018.06.018.06.017L65.34.7l.06.016.06.016.06.015.06.015.06.015.06.014L65.76.8l.06.013.06.013.06.012L66,.853l.06.011.06.011.06.011.06.01.06.01.06.009.06.009.06.008.06.008.06.007.06.007.06.006.06.006.06.005.06,0,.06,0,.06,0,.06,0,.06,0,.06,0,.06,0,.06,0h.36l.06,0,.06,0,.06,0,.06,0,.06,0,.06,0,.06,0,.06,0,.06-.005L68.28.96l.06-.006L68.4.947,68.46.94l.06-.008.06-.008.06-.009L68.7.906,68.76.9l.06-.01.06-.011.06-.011L69,.853l.06-.012.06-.012.06-.013L69.24.8,69.3.789l.06-.014.06-.015.06-.015L69.54.73,69.6.714,69.66.7l.06-.017.06-.017.06-.018L69.9.629l.06-.018.06-.019.06-.019.06-.02.06-.02.06-.02.06-.021.06-.021.06-.022L70.5.427,70.56.4l.06-.023.06-.023.06-.023L70.8.312l.06-.024.06-.025.06-.025.06-.025L71.1.187l.06-.026.06-.026.06-.027.06-.027L71.4.054l.06-.028L71.52,0l.06-.028.06-.029.06-.029.06-.029.06-.029.06-.03.06-.03L72-.237l.06-.031L72.12-.3l.06-.031.06-.031.06-.032.06-.032.06-.032.06-.032.06-.033.06-.033.06-.033.06-.033.06-.034.06-.034.06-.034.06-.034.06-.034.06-.035.06-.035L73.2-.9l.06-.035.06-.035L73.38-1l.06-.036.06-.036.06-.036.06-.036.06-.036.06-.036.06-.036.06-.037.06-.037.06-.037.06-.037.06-.037.06-.037.06-.037.06-.037.06-.037.06-.037.06-.037.06-.037.06-.038.06-.038.06-.038.06-.038.06-.038.06-.038.06-.038L75-2l.06-.038.06-.038.06-.038.06-.038.06-.038.06-.038.06-.038.06-.038.06-.037.06-.037.06-.037.06-.037.06-.037.06-.037.06-.037.06-.037.06-.037.06-.037.06-.037.06-.037.06-.036.06-.036.06-.036.06-.036.06-.036.06-.036L76.62-3l.06-.035.06-.035L76.8-3.1l.06-.035.06-.035.06-.035.06-.034.06-.034.06-.034.06-.034.06-.034.06-.033.06-.033.06-.033.06-.033.06-.032.06-.032.06-.032.06-.032.06-.031.06-.031.06-.031L78-3.763l.06-.03.06-.03.06-.03.06-.029.06-.029.06-.029.06-.029L78.48-4l.06-.028.06-.028.06-.027.06-.027.06-.027.06-.026.06-.026.06-.026.06-.025.06-.025.06-.025.06-.024.06-.024.06-.023.06-.023.06-.023.06-.022.06-.022.06-.022.06-.021.06-.021.06-.02.06-.02.06-.02.06-.019.06-.019.06-.018.06-.018.06-.018.06-.017.06-.017.06-.016.06-.016.06-.015.06-.015.06-.015.06-.014.06-.014.06-.013.06-.013.06-.012L81-4.853l.06-.011.06-.011.06-.011.06-.01.06-.01.06-.009.06-.009.06-.008.06-.008.06-.007.06-.007.06-.006.06-.006.06-.005.06,0,.06,0,.06,0,.06,0,.06,0,.06,0,.06,0,.06,0h.36l.06,0,.06,0,.06,0,.06,0,.06,0,.06,0,.06,0,.06,0,.06.005.06.006.06.006.06.007.06.007.06.008.06.008.06.009.06.009.06.01.06.01.06.011.06.011.06.011.06.012.06.012.06.013.06.013.06.014.06.014.06.015.06.015.06.015.06.016.06.016.06.017.06.017.06.018.06.018.06.018.06.019.06.019.06.02.06.02.06.02.06.021.06.021.06.022.06.022.06.022.06.023.06.023.06.023.06.024.06.024.06.025.06.025.06.025.06.026.06.026.06.026.06.027.06.027.06.027.06.028L86.52-4l.06.028.06.029.06.029.06.029.06.029.06.03.06.03.06.03.06.031.06.031.06.031.06.031.06.032.06.032.06.032.06.032.06.033.06.033.06.033.06.033.06.034.06.034.06.034.06.034.06.034.06.035.06.035.06.035.06.035.06.035L88.38-3l.06.036.06.036.06.036.06.036.06.036.06.036.06.036.06.037.06.037.06.037.06.037.06.037.06.037.06.037.06.037.06.037.06.037.06.037.06.037.06.038.06.038.06.038.06.038.06.038.06.038.06.038L90-2l.06.038.06.038.06.038.06.038.06.038.06.038.06.038.06.038.06.037.06.037.06.037.06.037.06.037.06.037.06.037.06.037.06.037.06.037.06.037.06.037.06.036.06.036.06.036.06.036.06.036.06.036L91.62-1l.06.035.06.035L91.8-.9l.06.035.06.035.06.035.06.034.06.034.06.034.06.034.06.034.06.033.06.033.06.033.06.033.06.032.06.032.06.032.06.032.06.031.06.031.06.031L93-.237l.06.03.06.03.06.03.06.029.06.029.06.029.06.029L93.48,0l.06.028.06.028.06.027.06.027.06.027.06.026.06.026.06.026.06.025.06.025.06.025.06.024.06.024.06.023.06.023L94.44.4l.06.022.06.022.06.022.06.021.06.021.06.02.06.02.06.02.06.019.06.019.06.018.06.018.06.018.06.017L95.34.7l.06.016.06.016.06.015.06.015.06.015.06.014L95.76.8l.06.013.06.013.06.012L96,.853l.06.011.06.011.06.011.06.01.06.01.06.009.06.009.06.008.06.008.06.007.06.007.06.006.06.006.06.005.06,0,.06,0,.06,0,.06,0,.06,0,.06,0,.06,0,.06,0h.36l.06,0,.06,0,.06,0,.06,0,.06,0,.06,0,.06,0,.06,0,.06-.005L98.28.96l.06-.006L98.4.947,98.46.94l.06-.008.06-.008.06-.009L98.7.906,98.76.9l.06-.01.06-.011.06-.011L99,.853l.06-.012.06-.012.06-.013L99.24.8,99.3.789l.06-.014.06-.015.06-.015L99.54.73,99.6.714,99.66.7l.06-.017.06-.017.06-.018L99.9.629l.06-.018.06-.019.06-.019.06-.02.06-.02.06-.02.06-.021.06-.021.06-.022.06-.022L100.56.4l.06-.023.06-.023.06-.023.06-.024.06-.024.06-.025.06-.025.06-.025.06-.026.06-.026.06-.026.06-.027.06-.027.06-.027.06-.028L101.52,0l.06-.028.06-.029.06-.029.06-.029.06-.029.06-.03.06-.03.06-.03.06-.031.06-.031.06-.031.06-.031.06-.032.06-.032.06-.032.06-.032.06-.033.06-.033.06-.033.06-.033.06-.034.06-.034.06-.034.06-.034.06-.034.06-.035.06-.035L103.2-.9l.06-.035.06-.035L103.38-1l.06-.036.06-.036.06-.036.06-.036.06-.036.06-.036.06-.036.06-.037.06-.037.06-.037.06-.037.06-.037.06-.037.06-.037.06-.037.06-.037.06-.037.06-.037.06-.037.06-.038.06-.038.06-.038.06-.038.06-.038.06-.038.06-.038L105-2l.06-.038.06-.038.06-.038.06-.038.06-.038.06-.038.06-.038.06-.038.06-.037.06-.037.06-.037.06-.037.06-.037.06-.037.06-.037.06-.037.06-.037.06-.037.06-.037.06-.037.06-.036.06-.036.06-.036.06-.036.06-.036.06-.036L106.62-3l.06-.035.06-.035.06-.035.06-.035.06-.035.06-.035.06-.034.06-.034.06-.034.06-.034.06-.034.06-.033.06-.033.06-.033.06-.033.06-.032.06-.032.06-.032.06-.032.06-.031.06-.031.06-.031.06-.031.06-.03.06-.03.06-.03.06-.029.06-.029.06-.029.06-.029L108.48-4l.06-.028.06-.028.06-.027.06-.027.06-.027.06-.026.06-.026.06-.026.06-.025.06-.025.06-.025.06-.024.06-.024.06-.023.06-.023.06-.023.06-.022.06-.022.06-.022.06-.021.06-.021.06-.02.06-.02.06-.02.06-.019.06-.019.06-.018.06-.018.06-.018.06-.017.06-.017.06-.016.06-.016.06-.015.06-.015.06-.015.06-.014.06-.014.06-.013.06-.013.06-.012.06-.012.06-.011.06-.011.06-.011.06-.01.06-.01.06-.009.06-.009.06-.008.06-.008.06-.007.06-.007.06-.006.06-.006.06-.005.06,0,.06,0,.06,0,.06,0,.06,0,.06,0,.06,0,.06,0h.36l.06,0,.06,0,.06,0,.06,0,.06,0,.06,0,.06,0,.06,0,.06.005.06.006.06.006.06.007.06.007.06.008.06.008.06.009.06.009.06.01.06.01.06.011.06.011.06.011.06.012.06.012.06.013.06.013.06.014.06.014.06.015.06.015.06.015.06.016.06.016.06.017.06.017.06.018.06.018.06.018.06.019.06.019.06.02.06.02.06.02.06.021.06.021.06.022.06.022.06.022.06.023.06.023.06.023.06.024.06.024.06.025.06.025.06.025.06.026.06.026.06.026.06.027.06.027.06.027.06.028.06.028.06.028.06.029.06.029.06.029.06.029.06.03.06.03.06.03.06.031.06.031.06.031.06.031.06.032.06.032.06.032.06.032.06.033.06.033.06.033.06.033.06.034.06.034.06.034.06.034.06.034.06.035.06.035.06.035.06.035.06.035.06.035.06.036.06.036.06.036.06.036.06.036.06.036.06.036.06.037.06.037.06.037.06.037.06.037.06.037.06.037.06.037.06.037.06.037.06.037.06.037.06.038.06.038.06.038.06.038.06.038.06.038.06.038L120-2" transform="translate(549.5 12232.5)" fill="none" stroke="#fcd214" stroke-linecap="round" stroke-linejoin="round" stroke-width="3"/>
    </g>
    <g transform="translate(-307.432 -12226)">
      <path id="_1_10_200_4-3" data-name="1_10_200_4" d="M0-2l.06.038.06.038.06.038.06.038.06.038.06.038.06.038L.48-1.7l.06.037.06.037.06.037.06.037.06.037.06.037.06.037L.96-1.4l.06.037.06.037.06.037.06.037.06.036.06.036.06.036.06.036.06.036.06.036L1.62-1l.06.035.06.035L1.8-.9l.06.035.06.035.06.035.06.034.06.034.06.034.06.034.06.034.06.033.06.033.06.033.06.033.06.032.06.032.06.032.06.032.06.031L2.88-.3l.06.031L3-.237l.06.03.06.03.06.03.06.029.06.029.06.029.06.029L3.48,0l.06.028L3.6.054l.06.027.06.027.06.027.06.026L3.9.187l.06.026.06.025.06.025.06.025L4.2.312l.06.024.06.023.06.023L4.44.4,4.5.427l.06.022.06.022.06.021.06.021.06.02.06.02.06.02.06.019.06.019L5.1.629l.06.018.06.018.06.017L5.34.7,5.4.714,5.46.73l.06.015.06.015.06.015L5.7.789,5.76.8l.06.013.06.013.06.012L6,.853l.06.011.06.011.06.011L6.24.9l.06.01.06.009.06.009.06.008L6.54.94,6.6.947l.06.007L6.72.96l.06.006.06.005.06,0,.06,0,.06,0,.06,0,.06,0,.06,0,.06,0,.06,0h.36l.06,0,.06,0,.06,0,.06,0,.06,0,.06,0,.06,0,.06,0L8.22.966,8.28.96,8.34.954,8.4.947,8.46.94,8.52.932,8.58.924,8.64.915,8.7.906,8.76.9l.06-.01L8.88.876,8.94.865,9,.853,9.06.841,9.12.829,9.18.816,9.24.8,9.3.789,9.36.775,9.42.761,9.48.746,9.54.73,9.6.714,9.66.7,9.72.682,9.78.664,9.84.647,9.9.629,9.96.611l.06-.019.06-.019.06-.02.06-.02.06-.02.06-.021.06-.021.06-.022L10.5.427,10.56.4l.06-.023.06-.023.06-.023L10.8.312l.06-.024.06-.025.06-.025.06-.025L11.1.187l.06-.026.06-.026.06-.027.06-.027L11.4.054l.06-.028L11.52,0l.06-.028.06-.029.06-.029.06-.029.06-.029.06-.03.06-.03L12-.237l.06-.031L12.12-.3l.06-.031.06-.031.06-.032.06-.032.06-.032.06-.032.06-.033.06-.033.06-.033.06-.033.06-.034.06-.034.06-.034.06-.034.06-.034.06-.035.06-.035L13.2-.9l.06-.035.06-.035L13.38-1l.06-.036.06-.036.06-.036.06-.036.06-.036.06-.036.06-.036.06-.037.06-.037.06-.037.06-.037.06-.037.06-.037.06-.037.06-.037.06-.037.06-.037.06-.037.06-.037.06-.038.06-.038.06-.038.06-.038.06-.038.06-.038.06-.038L15-2l.06-.038.06-.038.06-.038.06-.038.06-.038.06-.038.06-.038.06-.038.06-.037.06-.037.06-.037.06-.037.06-.037.06-.037.06-.037.06-.037.06-.037.06-.037.06-.037.06-.037.06-.036.06-.036.06-.036.06-.036.06-.036.06-.036L16.62-3l.06-.035.06-.035L16.8-3.1l.06-.035.06-.035.06-.035.06-.034.06-.034.06-.034.06-.034.06-.034.06-.033.06-.033.06-.033.06-.033.06-.032.06-.032.06-.032.06-.032.06-.031.06-.031.06-.031L18-3.763l.06-.03.06-.03.06-.03.06-.029.06-.029.06-.029.06-.029L18.48-4l.06-.028.06-.028.06-.027.06-.027.06-.027.06-.026.06-.026.06-.026.06-.025.06-.025.06-.025.06-.024.06-.024.06-.023.06-.023.06-.023.06-.022.06-.022.06-.022.06-.021.06-.021.06-.02.06-.02.06-.02.06-.019.06-.019.06-.018.06-.018.06-.018.06-.017.06-.017.06-.016.06-.016.06-.015.06-.015.06-.015.06-.014.06-.014.06-.013.06-.013.06-.012L21-4.853l.06-.011.06-.011.06-.011.06-.01.06-.01.06-.009.06-.009.06-.008.06-.008.06-.007.06-.007.06-.006.06-.006.06-.005.06,0,.06,0,.06,0,.06,0,.06,0,.06,0,.06,0,.06,0h.36l.06,0,.06,0,.06,0,.06,0,.06,0,.06,0,.06,0,.06,0,.06.005.06.006.06.006.06.007.06.007.06.008.06.008.06.009.06.009.06.01.06.01.06.011.06.011.06.011.06.012.06.012.06.013.06.013.06.014.06.014.06.015.06.015.06.015.06.016.06.016.06.017.06.017.06.018.06.018.06.018.06.019.06.019.06.02.06.02.06.02.06.021.06.021.06.022.06.022.06.022.06.023.06.023.06.023.06.024.06.024.06.025.06.025.06.025.06.026.06.026.06.026.06.027.06.027.06.027.06.028L26.52-4l.06.028.06.029.06.029.06.029.06.029.06.03.06.03.06.03.06.031.06.031.06.031.06.031.06.032.06.032.06.032.06.032.06.033.06.033.06.033.06.033.06.034.06.034.06.034.06.034.06.034.06.035.06.035.06.035.06.035.06.035L28.38-3l.06.036.06.036.06.036.06.036.06.036.06.036.06.036.06.037.06.037.06.037.06.037.06.037.06.037.06.037.06.037.06.037.06.037.06.037.06.037.06.038.06.038.06.038.06.038.06.038.06.038.06.038L30-2l.06.038.06.038.06.038.06.038.06.038.06.038.06.038.06.038.06.037.06.037.06.037.06.037.06.037.06.037.06.037.06.037.06.037.06.037.06.037.06.037.06.036.06.036.06.036.06.036.06.036.06.036L31.62-1l.06.035.06.035L31.8-.9l.06.035.06.035.06.035.06.034.06.034.06.034.06.034.06.034.06.033.06.033.06.033.06.033.06.032.06.032.06.032.06.032.06.031.06.031.06.031L33-.237l.06.03.06.03.06.03.06.029.06.029.06.029.06.029L33.48,0l.06.028.06.028.06.027.06.027.06.027.06.026.06.026.06.026.06.025.06.025.06.025.06.024.06.024.06.023.06.023L34.44.4l.06.022.06.022.06.022.06.021.06.021.06.02.06.02.06.02.06.019.06.019.06.018.06.018.06.018.06.017L35.34.7l.06.016.06.016.06.015.06.015.06.015.06.014L35.76.8l.06.013.06.013.06.012L36,.853l.06.011.06.011.06.011.06.01.06.01.06.009.06.009.06.008.06.008.06.007.06.007.06.006.06.006.06.005.06,0,.06,0,.06,0,.06,0,.06,0,.06,0,.06,0,.06,0h.36l.06,0,.06,0,.06,0,.06,0,.06,0,.06,0,.06,0,.06,0,.06-.005L38.28.96l.06-.006L38.4.947,38.46.94l.06-.008.06-.008.06-.009L38.7.906,38.76.9l.06-.01.06-.011.06-.011L39,.853l.06-.012.06-.012.06-.013L39.24.8,39.3.789l.06-.014.06-.015.06-.015L39.54.73,39.6.714,39.66.7l.06-.017.06-.017.06-.018L39.9.629l.06-.018.06-.019.06-.019.06-.02.06-.02.06-.02.06-.021.06-.021.06-.022L40.5.427,40.56.4l.06-.023.06-.023.06-.023L40.8.312l.06-.024.06-.025.06-.025.06-.025L41.1.187l.06-.026.06-.026.06-.027.06-.027L41.4.054l.06-.028L41.52,0l.06-.028.06-.029.06-.029.06-.029.06-.029.06-.03.06-.03L42-.237l.06-.031L42.12-.3l.06-.031.06-.031.06-.032.06-.032.06-.032.06-.032.06-.033.06-.033.06-.033.06-.033.06-.034.06-.034.06-.034.06-.034.06-.034.06-.035.06-.035L43.2-.9l.06-.035.06-.035L43.38-1l.06-.036.06-.036.06-.036.06-.036.06-.036.06-.036.06-.036.06-.037.06-.037.06-.037.06-.037.06-.037.06-.037.06-.037.06-.037.06-.037.06-.037.06-.037.06-.037.06-.038.06-.038.06-.038.06-.038.06-.038.06-.038.06-.038L45-2l.06-.038.06-.038.06-.038.06-.038.06-.038.06-.038.06-.038.06-.038.06-.037.06-.037.06-.037.06-.037.06-.037.06-.037.06-.037.06-.037.06-.037.06-.037.06-.037.06-.037.06-.036.06-.036.06-.036.06-.036.06-.036.06-.036L46.62-3l.06-.035.06-.035L46.8-3.1l.06-.035.06-.035.06-.035.06-.034.06-.034.06-.034.06-.034.06-.034.06-.033.06-.033.06-.033.06-.033.06-.032.06-.032.06-.032.06-.032.06-.031.06-.031.06-.031L48-3.763l.06-.03.06-.03.06-.03.06-.029.06-.029.06-.029.06-.029L48.48-4l.06-.028.06-.028.06-.027.06-.027.06-.027.06-.026.06-.026.06-.026.06-.025.06-.025.06-.025.06-.024.06-.024.06-.023.06-.023.06-.023.06-.022.06-.022.06-.022.06-.021.06-.021.06-.02.06-.02.06-.02.06-.019.06-.019.06-.018.06-.018.06-.018.06-.017.06-.017.06-.016.06-.016.06-.015.06-.015.06-.015.06-.014.06-.014.06-.013.06-.013.06-.012L51-4.853l.06-.011.06-.011.06-.011.06-.01.06-.01.06-.009.06-.009.06-.008.06-.008.06-.007.06-.007.06-.006.06-.006.06-.005.06,0,.06,0,.06,0,.06,0,.06,0,.06,0,.06,0,.06,0h.36l.06,0,.06,0,.06,0,.06,0,.06,0,.06,0,.06,0,.06,0,.06.005.06.006.06.006.06.007.06.007.06.008.06.008.06.009.06.009.06.01.06.01.06.011.06.011.06.011.06.012.06.012.06.013.06.013.06.014.06.014.06.015.06.015.06.015.06.016.06.016.06.017.06.017.06.018.06.018.06.018.06.019.06.019.06.02.06.02.06.02.06.021.06.021.06.022.06.022.06.022.06.023.06.023.06.023.06.024.06.024.06.025.06.025.06.025.06.026.06.026.06.026.06.027.06.027.06.027.06.028L56.52-4l.06.028.06.029.06.029.06.029.06.029.06.03.06.03.06.03.06.031.06.031.06.031.06.031.06.032.06.032.06.032.06.032.06.033.06.033.06.033.06.033.06.034.06.034.06.034.06.034.06.034.06.035.06.035.06.035.06.035.06.035L58.38-3l.06.036.06.036.06.036.06.036.06.036.06.036.06.036.06.037.06.037.06.037.06.037.06.037.06.037.06.037.06.037.06.037.06.037.06.037.06.037.06.038.06.038.06.038.06.038.06.038.06.038.06.038L60-2l.06.038.06.038.06.038.06.038.06.038.06.038.06.038.06.038.06.037.06.037.06.037.06.037.06.037.06.037.06.037.06.037.06.037.06.037.06.037.06.037.06.036.06.036.06.036.06.036.06.036.06.036L61.62-1l.06.035.06.035L61.8-.9l.06.035.06.035.06.035.06.034.06.034.06.034.06.034.06.034.06.033.06.033.06.033.06.033.06.032.06.032.06.032.06.032.06.031.06.031.06.031L63-.237l.06.03.06.03.06.03.06.029.06.029.06.029.06.029L63.48,0l.06.028.06.028.06.027.06.027.06.027.06.026.06.026.06.026.06.025.06.025.06.025.06.024.06.024.06.023.06.023L64.44.4l.06.022.06.022.06.022.06.021.06.021.06.02.06.02.06.02.06.019.06.019.06.018.06.018.06.018.06.017L65.34.7l.06.016.06.016.06.015.06.015.06.015.06.014L65.76.8l.06.013.06.013.06.012L66,.853l.06.011.06.011.06.011.06.01.06.01.06.009.06.009.06.008.06.008.06.007.06.007.06.006.06.006.06.005.06,0,.06,0,.06,0,.06,0,.06,0,.06,0,.06,0,.06,0h.36l.06,0,.06,0,.06,0,.06,0,.06,0,.06,0,.06,0,.06,0,.06-.005L68.28.96l.06-.006L68.4.947,68.46.94l.06-.008.06-.008.06-.009L68.7.906,68.76.9l.06-.01.06-.011.06-.011L69,.853l.06-.012.06-.012.06-.013L69.24.8,69.3.789l.06-.014.06-.015.06-.015L69.54.73,69.6.714,69.66.7l.06-.017.06-.017.06-.018L69.9.629l.06-.018.06-.019.06-.019.06-.02.06-.02.06-.02.06-.021.06-.021.06-.022L70.5.427,70.56.4l.06-.023.06-.023.06-.023L70.8.312l.06-.024.06-.025.06-.025.06-.025L71.1.187l.06-.026.06-.026.06-.027.06-.027L71.4.054l.06-.028L71.52,0l.06-.028.06-.029.06-.029.06-.029.06-.029.06-.03.06-.03L72-.237l.06-.031L72.12-.3l.06-.031.06-.031.06-.032.06-.032.06-.032.06-.032.06-.033.06-.033.06-.033.06-.033.06-.034.06-.034.06-.034.06-.034.06-.034.06-.035.06-.035L73.2-.9l.06-.035.06-.035L73.38-1l.06-.036.06-.036.06-.036.06-.036.06-.036.06-.036.06-.036.06-.037.06-.037.06-.037.06-.037.06-.037.06-.037.06-.037.06-.037.06-.037.06-.037.06-.037.06-.037.06-.038.06-.038.06-.038.06-.038.06-.038.06-.038.06-.038L75-2l.06-.038.06-.038.06-.038.06-.038.06-.038.06-.038.06-.038.06-.038.06-.037.06-.037.06-.037.06-.037.06-.037.06-.037.06-.037.06-.037.06-.037.06-.037.06-.037.06-.037.06-.036.06-.036.06-.036.06-.036.06-.036.06-.036L76.62-3l.06-.035.06-.035L76.8-3.1l.06-.035.06-.035.06-.035.06-.034.06-.034.06-.034.06-.034.06-.034.06-.033.06-.033.06-.033.06-.033.06-.032.06-.032.06-.032.06-.032.06-.031.06-.031.06-.031L78-3.763l.06-.03.06-.03.06-.03.06-.029.06-.029.06-.029.06-.029L78.48-4l.06-.028.06-.028.06-.027.06-.027.06-.027.06-.026.06-.026.06-.026.06-.025.06-.025.06-.025.06-.024.06-.024.06-.023.06-.023.06-.023.06-.022.06-.022.06-.022.06-.021.06-.021.06-.02.06-.02.06-.02.06-.019.06-.019.06-.018.06-.018.06-.018.06-.017.06-.017.06-.016.06-.016.06-.015.06-.015.06-.015.06-.014.06-.014.06-.013.06-.013.06-.012L81-4.853l.06-.011.06-.011.06-.011.06-.01.06-.01.06-.009.06-.009.06-.008.06-.008.06-.007.06-.007.06-.006.06-.006.06-.005.06,0,.06,0,.06,0,.06,0,.06,0,.06,0,.06,0,.06,0h.36l.06,0,.06,0,.06,0,.06,0,.06,0,.06,0,.06,0,.06,0,.06.005.06.006.06.006.06.007.06.007.06.008.06.008.06.009.06.009.06.01.06.01.06.011.06.011.06.011.06.012.06.012.06.013.06.013.06.014.06.014.06.015.06.015.06.015.06.016.06.016.06.017.06.017.06.018.06.018.06.018.06.019.06.019.06.02.06.02.06.02.06.021.06.021.06.022.06.022.06.022.06.023.06.023.06.023.06.024.06.024.06.025.06.025.06.025.06.026.06.026.06.026.06.027.06.027.06.027.06.028L86.52-4l.06.028.06.029.06.029.06.029.06.029.06.03.06.03.06.03.06.031.06.031.06.031.06.031.06.032.06.032.06.032.06.032.06.033.06.033.06.033.06.033.06.034.06.034.06.034.06.034.06.034.06.035.06.035.06.035.06.035.06.035L88.38-3l.06.036.06.036.06.036.06.036.06.036.06.036.06.036.06.037.06.037.06.037.06.037.06.037.06.037.06.037.06.037.06.037.06.037.06.037.06.037.06.038.06.038.06.038.06.038.06.038.06.038.06.038L90-2l.06.038.06.038.06.038.06.038.06.038.06.038.06.038.06.038.06.037.06.037.06.037.06.037.06.037.06.037.06.037.06.037.06.037.06.037.06.037.06.037.06.036.06.036.06.036.06.036.06.036.06.036L91.62-1l.06.035.06.035L91.8-.9l.06.035.06.035.06.035.06.034.06.034.06.034.06.034.06.034.06.033.06.033.06.033.06.033.06.032.06.032.06.032.06.032.06.031.06.031.06.031L93-.237l.06.03.06.03.06.03.06.029.06.029.06.029.06.029L93.48,0l.06.028.06.028.06.027.06.027.06.027.06.026.06.026.06.026.06.025.06.025.06.025.06.024.06.024.06.023.06.023L94.44.4l.06.022.06.022.06.022.06.021.06.021.06.02.06.02.06.02.06.019.06.019.06.018.06.018.06.018.06.017L95.34.7l.06.016.06.016.06.015.06.015.06.015.06.014L95.76.8l.06.013.06.013.06.012L96,.853l.06.011.06.011.06.011.06.01.06.01.06.009.06.009.06.008.06.008.06.007.06.007.06.006.06.006.06.005.06,0,.06,0,.06,0,.06,0,.06,0,.06,0,.06,0,.06,0h.36l.06,0,.06,0,.06,0,.06,0,.06,0,.06,0,.06,0,.06,0,.06-.005L98.28.96l.06-.006L98.4.947,98.46.94l.06-.008.06-.008.06-.009L98.7.906,98.76.9l.06-.01.06-.011.06-.011L99,.853l.06-.012.06-.012.06-.013L99.24.8,99.3.789l.06-.014.06-.015.06-.015L99.54.73,99.6.714,99.66.7l.06-.017.06-.017.06-.018L99.9.629l.06-.018.06-.019.06-.019.06-.02.06-.02.06-.02.06-.021.06-.021.06-.022.06-.022L100.56.4l.06-.023.06-.023.06-.023.06-.024.06-.024.06-.025.06-.025.06-.025.06-.026.06-.026.06-.026.06-.027.06-.027.06-.027.06-.028L101.52,0l.06-.028.06-.029.06-.029.06-.029.06-.029.06-.03.06-.03.06-.03.06-.031.06-.031.06-.031.06-.031.06-.032.06-.032.06-.032.06-.032.06-.033.06-.033.06-.033.06-.033.06-.034.06-.034.06-.034.06-.034.06-.034.06-.035.06-.035L103.2-.9l.06-.035.06-.035L103.38-1l.06-.036.06-.036.06-.036.06-.036.06-.036.06-.036.06-.036.06-.037.06-.037.06-.037.06-.037.06-.037.06-.037.06-.037.06-.037.06-.037.06-.037.06-.037.06-.037.06-.038.06-.038.06-.038.06-.038.06-.038.06-.038.06-.038L105-2l.06-.038.06-.038.06-.038.06-.038.06-.038.06-.038.06-.038.06-.038.06-.037.06-.037.06-.037.06-.037.06-.037.06-.037.06-.037.06-.037.06-.037.06-.037.06-.037.06-.037.06-.036.06-.036.06-.036.06-.036.06-.036.06-.036L106.62-3l.06-.035.06-.035.06-.035.06-.035.06-.035.06-.035.06-.034.06-.034.06-.034.06-.034.06-.034.06-.033.06-.033.06-.033.06-.033.06-.032.06-.032.06-.032.06-.032.06-.031.06-.031.06-.031.06-.031.06-.03.06-.03.06-.03.06-.029.06-.029.06-.029.06-.029L108.48-4l.06-.028.06-.028.06-.027.06-.027.06-.027.06-.026.06-.026.06-.026.06-.025.06-.025.06-.025.06-.024.06-.024.06-.023.06-.023.06-.023.06-.022.06-.022.06-.022.06-.021.06-.021.06-.02.06-.02.06-.02.06-.019.06-.019.06-.018.06-.018.06-.018.06-.017.06-.017.06-.016.06-.016.06-.015.06-.015.06-.015.06-.014.06-.014.06-.013.06-.013.06-.012.06-.012.06-.011.06-.011.06-.011.06-.01.06-.01.06-.009.06-.009.06-.008.06-.008.06-.007.06-.007.06-.006.06-.006.06-.005.06,0,.06,0,.06,0,.06,0,.06,0,.06,0,.06,0,.06,0h.36l.06,0,.06,0,.06,0,.06,0,.06,0,.06,0,.06,0,.06,0,.06.005.06.006.06.006.06.007.06.007.06.008.06.008.06.009.06.009.06.01.06.01.06.011.06.011.06.011.06.012.06.012.06.013.06.013.06.014.06.014.06.015.06.015.06.015.06.016.06.016.06.017.06.017.06.018.06.018.06.018.06.019.06.019.06.02.06.02.06.02.06.021.06.021.06.022.06.022.06.022.06.023.06.023.06.023.06.024.06.024.06.025.06.025.06.025.06.026.06.026.06.026.06.027.06.027.06.027.06.028.06.028.06.028.06.029.06.029.06.029.06.029.06.03.06.03.06.03.06.031.06.031.06.031.06.031.06.032.06.032.06.032.06.032.06.033.06.033.06.033.06.033.06.034.06.034.06.034.06.034.06.034.06.035.06.035.06.035.06.035.06.035.06.035.06.036.06.036.06.036.06.036.06.036.06.036.06.036.06.037.06.037.06.037.06.037.06.037.06.037.06.037.06.037.06.037.06.037.06.037.06.037.06.038.06.038.06.038.06.038.06.038.06.038.06.038L120-2" transform="translate(549.5 12232.5)" fill="none" stroke="#fcd214" stroke-linecap="round" stroke-linejoin="round" stroke-width="3"/>
    </g>
  </g>
</svg>
