<svg id="ios" xmlns="http://www.w3.org/2000/svg" xmlns:xlink="http://www.w3.org/1999/xlink" width="209.412" height="70" viewBox="0 0 209.412 70">
  <defs>
    <clipPath id="clip-path">
      <rect id="長方形_12815" data-name="長方形 12815" width="209.412" height="70" fill="none"/>
    </clipPath>
  </defs>
  <g id="グループ_15528" data-name="グループ 15528" clip-path="url(#clip-path)">
    <path id="パス_82502" data-name="パス 82502" d="M192.736,0H16.686c-.642,0-1.276,0-1.916,0-.535,0-1.067.014-1.608.023A23.041,23.041,0,0,0,9.655.334a11.76,11.76,0,0,0-3.327,1.1A11.277,11.277,0,0,0,3.5,3.495,10.951,10.951,0,0,0,1.435,6.331,11.54,11.54,0,0,0,.341,9.662a22.671,22.671,0,0,0-.315,3.5C.01,13.7.009,14.241,0,14.777V55.228c.009.542.01,1.069.026,1.612a22.632,22.632,0,0,0,.315,3.5,11.51,11.51,0,0,0,1.094,3.334A10.861,10.861,0,0,0,3.5,66.5a10.983,10.983,0,0,0,2.832,2.063,11.831,11.831,0,0,0,3.327,1.1,23.5,23.5,0,0,0,3.507.308c.541.012,1.073.019,1.608.019.641,0,1.274,0,1.916,0h176.05c.628,0,1.269,0,1.9,0,.534,0,1.08-.007,1.613-.019a23.163,23.163,0,0,0,3.5-.308,11.984,11.984,0,0,0,3.339-1.1,10.944,10.944,0,0,0,2.83-2.063,11.22,11.22,0,0,0,2.068-2.824,11.546,11.546,0,0,0,1.083-3.334,23.783,23.783,0,0,0,.325-3.5c.005-.543.005-1.069.005-1.612.014-.637.014-1.269.014-1.915V16.688c0-.641,0-1.276-.014-1.911,0-.536,0-1.075-.005-1.612a23.828,23.828,0,0,0-.325-3.5,11.576,11.576,0,0,0-1.083-3.33,11.329,11.329,0,0,0-4.9-4.9,11.911,11.911,0,0,0-3.339-1.1,22.72,22.72,0,0,0-3.5-.308c-.534-.009-1.08-.019-1.613-.023-.628,0-1.269,0-1.9,0" fill="#a2a2a2"/>
    <path id="パス_82503" data-name="パス 82503" d="M14.124,67.812c-.534,0-1.053-.007-1.582-.019a22.076,22.076,0,0,1-3.271-.285,10.256,10.256,0,0,1-2.9-.959,9.433,9.433,0,0,1-2.445-1.778A9.326,9.326,0,0,1,2.14,62.326a10.066,10.066,0,0,1-.95-2.9A21.7,21.7,0,0,1,.9,56.145c-.01-.369-.026-1.6-.026-1.6V14.121S.889,12.911.9,12.556A21.612,21.612,0,0,1,1.188,9.28,10.072,10.072,0,0,1,2.14,6.372,9.341,9.341,0,0,1,3.916,3.925,9.775,9.775,0,0,1,6.37,2.135a10.194,10.194,0,0,1,2.895-.952A22.116,22.116,0,0,1,12.545.9L14.124.875H193.97l1.6.023a21.669,21.669,0,0,1,3.253.284,10.423,10.423,0,0,1,2.922.959,9.788,9.788,0,0,1,4.226,4.235,10.1,10.1,0,0,1,.938,2.886,22.667,22.667,0,0,1,.3,3.3c.005.5.005,1.029.005,1.557.014.656.014,1.281.014,1.911V52.657c0,.635,0,1.257-.014,1.881,0,.569,0,1.09-.007,1.627a22.208,22.208,0,0,1-.3,3.243,10.1,10.1,0,0,1-.945,2.922,9.629,9.629,0,0,1-1.778,2.426,9.448,9.448,0,0,1-2.448,1.788,10.223,10.223,0,0,1-2.919.962,21.842,21.842,0,0,1-3.273.285c-.513.012-1.048.019-1.57.019l-1.9,0Z" transform="translate(0.655 0.656)"/>
    <path id="パス_82504" data-name="パス 82504" d="M35.867,25.047a8.658,8.658,0,0,1,4.125-7.266A8.865,8.865,0,0,0,33.006,14c-2.938-.308-5.787,1.759-7.285,1.759-1.526,0-3.831-1.727-6.314-1.676a9.3,9.3,0,0,0-7.828,4.774c-3.384,5.859-.859,14.471,2.382,19.208,1.622,2.319,3.517,4.91,6,4.818,2.427-.1,3.334-1.547,6.263-1.547,2.9,0,3.754,1.547,6.284,1.489,2.606-.042,4.246-2.329,5.812-4.671a19.171,19.171,0,0,0,2.656-5.413,8.37,8.37,0,0,1-5.108-7.7" transform="translate(7.479 10.48)" fill="#fff"/>
    <path id="パス_82505" data-name="パス 82505" d="M24.484,14.829A8.53,8.53,0,0,0,26.435,8.72a8.679,8.679,0,0,0-5.614,2.905,8.109,8.109,0,0,0-2,5.882,7.172,7.172,0,0,0,5.665-2.677" transform="translate(14.081 6.54)" fill="#fff"/>
    <path id="パス_82506" data-name="パス 82506" d="M48.208,33.937H39.926l-1.99,5.873H34.427l7.847-21.732h3.645L53.765,39.81H50.2Zm-7.425-2.711h6.566l-3.238-9.532h-.089Z" transform="translate(25.82 13.558)" fill="#fff"/>
    <path id="パス_82507" data-name="パス 82507" d="M61.556,29.436c0,4.923-2.637,8.087-6.611,8.087a5.372,5.372,0,0,1-4.988-2.772h-.075V42.6h-3.25V21.514H49.78V24.15h.06a5.614,5.614,0,0,1,5.044-2.8c4.023,0,6.673,3.178,6.673,8.088m-3.342,0c0-3.208-1.659-5.316-4.189-5.316-2.485,0-4.156,2.153-4.156,5.316,0,3.192,1.671,5.331,4.156,5.331,2.53,0,4.189-2.093,4.189-5.331" transform="translate(34.974 16.011)" fill="#fff"/>
    <path id="パス_82508" data-name="パス 82508" d="M71.52,29.436c0,4.923-2.635,8.087-6.611,8.087a5.372,5.372,0,0,1-4.986-2.772h-.075V42.6H56.6V21.514h3.148V24.15h.06a5.618,5.618,0,0,1,5.045-2.8c4.021,0,6.671,3.178,6.671,8.088m-3.342,0c0-3.208-1.657-5.316-4.188-5.316-2.485,0-4.156,2.153-4.156,5.316,0,3.192,1.671,5.331,4.156,5.331,2.53,0,4.188-2.093,4.188-5.331" transform="translate(42.447 16.011)" fill="#fff"/>
    <path id="パス_82509" data-name="パス 82509" d="M73.138,33.91c.24,2.154,2.334,3.57,5.194,3.57,2.74,0,4.713-1.416,4.713-3.358,0-1.687-1.19-2.7-4.006-3.388l-2.814-.679c-3.993-.964-5.845-2.83-5.845-5.859,0-3.748,3.269-6.324,7.906-6.324,4.592,0,7.74,2.576,7.847,6.324H82.85c-.2-2.168-1.99-3.477-4.608-3.477s-4.413,1.325-4.413,3.252c0,1.536,1.144,2.441,3.945,3.132l2.4.588c4.457,1.055,6.312,2.845,6.312,6.025,0,4.065-3.241,6.611-8.391,6.611-4.82,0-8.073-2.487-8.281-6.417Z" transform="translate(52.357 13.403)" fill="#fff"/>
    <path id="パス_82510" data-name="パス 82510" d="M85.734,19.3v3.75h3.014v2.574H85.734v8.734c0,1.358.6,1.99,1.929,1.99a9.977,9.977,0,0,0,1.069-.075v2.56a8.9,8.9,0,0,1-1.806.15c-3.208,0-4.459-1.2-4.459-4.277V25.624h-2.3V23.05h2.3V19.3Z" transform="translate(60.121 14.475)" fill="#fff"/>
    <path id="パス_82511" data-name="パス 82511" d="M86.065,29.449c0-4.986,2.935-8.118,7.515-8.118s7.516,3.133,7.516,8.118-2.909,8.118-7.516,8.118-7.515-3.12-7.515-8.118m11.716,0c0-3.42-1.568-5.437-4.2-5.437s-4.2,2.034-4.2,5.437c0,3.434,1.566,5.436,4.2,5.436s4.2-2,4.2-5.436" transform="translate(64.549 15.998)" fill="#fff"/>
    <path id="パス_82512" data-name="パス 82512" d="M96.186,21.513h3.1v2.7h.075a3.782,3.782,0,0,1,3.812-2.863,4.926,4.926,0,0,1,1.115.123v3.041a4.535,4.535,0,0,0-1.461-.2c-2.093,0-3.39,1.416-3.39,3.645v9.4H96.186Z" transform="translate(72.139 16.01)" fill="#fff"/>
    <path id="パス_82513" data-name="パス 82513" d="M115.509,32.716c-.437,2.877-3.238,4.851-6.821,4.851-4.61,0-7.471-3.089-7.471-8.043,0-4.97,2.877-8.194,7.334-8.194,4.384,0,7.14,3.012,7.14,7.816v1.115H104.5v.2a4.128,4.128,0,0,0,4.263,4.489,3.586,3.586,0,0,0,3.659-2.23Zm-10.994-4.728h7.921a3.809,3.809,0,0,0-3.885-4.021,4.011,4.011,0,0,0-4.035,4.021" transform="translate(75.913 15.998)" fill="#fff"/>
    <path id="パス_82514" data-name="パス 82514" d="M39.444,8.731c3.1,0,4.912,1.9,4.912,5.189,0,3.335-1.8,5.253-4.912,5.253H35.671V8.731ZM37.293,17.7h1.969c2.184,0,3.444-1.36,3.444-3.755,0-2.359-1.281-3.735-3.444-3.735H37.293Z" transform="translate(26.753 6.548)" fill="#fff"/>
    <path id="パス_82515" data-name="パス 82515" d="M41.681,14.2c0-2.541,1.419-4.088,3.719-4.088s3.714,1.547,3.714,4.088S47.7,18.291,45.4,18.291s-3.719-1.542-3.719-4.095m5.833,0c0-1.708-.766-2.707-2.114-2.707s-2.112,1-2.112,2.707.761,2.712,2.112,2.712,2.114-1,2.114-2.712" transform="translate(31.261 7.581)" fill="#fff"/>
    <path id="パス_82516" data-name="パス 82516" d="M55.326,18.075H53.713l-1.629-5.8h-.123l-1.622,5.8h-1.6l-2.172-7.88h1.577l1.412,6.013h.117l1.619-6.013h1.493l1.621,6.013h.123l1.405-6.013h1.554Z" transform="translate(34.927 7.646)" fill="#fff"/>
    <path id="パス_82517" data-name="パス 82517" d="M53.854,10.26h1.495v1.251h.117a2.361,2.361,0,0,1,2.352-1.4c1.761,0,2.727,1.057,2.727,2.931v5.1H58.99V13.43c0-1.267-.551-1.9-1.7-1.9a1.806,1.806,0,0,0-1.879,2V18.14H53.854Z" transform="translate(40.39 7.581)" fill="#fff"/>
    <rect id="長方形_12814" data-name="長方形 12814" width="1.556" height="10.957" transform="translate(103.414 14.765)" fill="#fff"/>
    <path id="パス_82518" data-name="パス 82518" d="M61.218,14.2c0-2.541,1.419-4.088,3.719-4.088s3.715,1.547,3.715,4.088-1.414,4.095-3.715,4.095-3.719-1.542-3.719-4.095m5.833,0c0-1.708-.767-2.707-2.114-2.707s-2.112,1-2.112,2.707.761,2.712,2.112,2.712,2.114-1,2.114-2.712" transform="translate(45.913 7.581)" fill="#fff"/>
    <path id="パス_82519" data-name="パス 82519" d="M66.4,15.913c0-1.419,1.057-2.236,2.931-2.352l2.135-.124v-.679c0-.833-.549-1.3-1.613-1.3-.868,0-1.47.32-1.642.877H66.7c.159-1.354,1.433-2.222,3.22-2.222,1.976,0,3.09.984,3.09,2.649V18.14h-1.5V17.033h-.123a2.652,2.652,0,0,1-2.368,1.237A2.38,2.38,0,0,1,66.4,15.913m5.066-.674v-.658l-1.925.123c-1.085.072-1.577.441-1.577,1.136,0,.71.616,1.122,1.461,1.122a1.857,1.857,0,0,0,2.041-1.722" transform="translate(49.8 7.581)" fill="#fff"/>
    <path id="パス_82520" data-name="パス 82520" d="M71.348,15.449c0-2.49,1.279-4.067,3.271-4.067a2.6,2.6,0,0,1,2.417,1.383h.116V8.437h1.556V19.392H77.218V18.148h-.124a2.735,2.735,0,0,1-2.474,1.375c-2,0-3.271-1.578-3.271-4.074m1.606,0c0,1.671.788,2.677,2.105,2.677s2.121-1.02,2.121-2.671-.819-2.677-2.121-2.677-2.105,1.013-2.105,2.67" transform="translate(53.511 6.328)" fill="#fff"/>
    <path id="パス_82521" data-name="パス 82521" d="M79.23,14.2c0-2.541,1.419-4.088,3.719-4.088s3.713,1.547,3.713,4.088-1.412,4.095-3.713,4.095S79.23,16.749,79.23,14.2m5.833,0c0-1.708-.766-2.707-2.114-2.707s-2.112,1-2.112,2.707.761,2.712,2.112,2.712,2.114-1,2.114-2.712" transform="translate(59.422 7.581)" fill="#fff"/>
    <path id="パス_82522" data-name="パス 82522" d="M84.67,10.26h1.494v1.251h.117a2.363,2.363,0,0,1,2.354-1.4c1.757,0,2.725,1.057,2.725,2.931v5.1H89.806V13.43c0-1.267-.551-1.9-1.7-1.9a1.807,1.807,0,0,0-1.88,2V18.14H84.67Z" transform="translate(63.502 7.581)" fill="#fff"/>
    <path id="パス_82523" data-name="パス 82523" d="M94.718,9.074v2h1.708v1.309H94.718v4.053c0,.824.339,1.187,1.115,1.187a5.291,5.291,0,0,0,.593-.037v1.3a5.2,5.2,0,0,1-.847.079c-1.729,0-2.419-.609-2.419-2.128v-4.45H91.911V11.073H93.16v-2Z" transform="translate(68.933 6.805)" fill="#fff"/>
    <path id="パス_82524" data-name="パス 82524" d="M95.705,8.437h1.542v4.342h.122a2.428,2.428,0,0,1,2.4-1.411c1.678,0,2.714,1.064,2.714,2.938v5.087h-1.557v-4.7c0-1.258-.586-1.9-1.685-1.9a1.841,1.841,0,0,0-1.983,2v4.6H95.705Z" transform="translate(71.779 6.328)" fill="#fff"/>
    <path id="パス_82525" data-name="パス 82525" d="M107.784,16.012a3.2,3.2,0,0,1-3.414,2.28c-2.258,0-3.64-1.549-3.64-4.067s1.41-4.118,3.633-4.118c2.193,0,3.516,1.5,3.516,3.972v.542h-5.565v.088a2.082,2.082,0,0,0,2.1,2.257,1.891,1.891,0,0,0,1.876-.955Zm-5.471-2.539h3.98a1.9,1.9,0,0,0-1.939-2.042,2.017,2.017,0,0,0-2.04,2.042" transform="translate(75.547 7.581)" fill="#fff"/>
  </g>
</svg>
