<svg xmlns="http://www.w3.org/2000/svg" width="236.25" height="70" viewBox="0 0 236.25 70">
  <g id="android" transform="translate(0 0)">
    <g id="グループ_15536" data-name="グループ 15536" transform="translate(0 0)">
      <g id="グループ_15533" data-name="グループ 15533">
        <g id="グループ_15537" data-name="グループ 15537">
          <path id="パス_82526" data-name="パス 82526" d="M237.5,80H18.75A8.776,8.776,0,0,1,10,71.25V18.75A8.776,8.776,0,0,1,18.75,10H237.5a8.776,8.776,0,0,1,8.75,8.75v52.5A8.776,8.776,0,0,1,237.5,80" transform="translate(-10 -10)"/>
          <path id="パス_82527" data-name="パス 82527" d="M237.5,11.4a7.358,7.358,0,0,1,7.35,7.35v52.5a7.358,7.358,0,0,1-7.35,7.35H18.75a7.358,7.358,0,0,1-7.35-7.35V18.75a7.358,7.358,0,0,1,7.35-7.35Zm0-1.4H18.75A8.776,8.776,0,0,0,10,18.75v52.5A8.776,8.776,0,0,0,18.75,80H237.5a8.776,8.776,0,0,0,8.75-8.75V18.75A8.776,8.776,0,0,0,237.5,10" transform="translate(-10 -10)" fill="#a6a6a6"/>
          <path id="パス_82528" data-name="パス 82528" d="M61.968,22.777a4.74,4.74,0,0,1-1.3,3.505,5.092,5.092,0,0,1-3.857,1.554,5.409,5.409,0,0,1-5.455-5.485,5.409,5.409,0,0,1,5.455-5.486,5.4,5.4,0,0,1,2.154.441A4.342,4.342,0,0,1,60.6,18.479l-.924.924a3.547,3.547,0,0,0-2.874-1.246,4.058,4.058,0,0,0-4.077,4.195,4.129,4.129,0,0,0,7.011,3.021,3.3,3.3,0,0,0,.879-2.126H56.807V21.984h5.087a4.515,4.515,0,0,1,.074.793" transform="translate(21.014 -4.851)" fill="#fff"/>
          <path id="パス_82529" data-name="パス 82529" d="M61.968,22.777a4.74,4.74,0,0,1-1.3,3.505,5.092,5.092,0,0,1-3.857,1.554,5.409,5.409,0,0,1-5.455-5.485,5.409,5.409,0,0,1,5.455-5.486,5.4,5.4,0,0,1,2.154.441A4.342,4.342,0,0,1,60.6,18.479l-.924.924a3.547,3.547,0,0,0-2.874-1.246,4.058,4.058,0,0,0-4.077,4.195,4.129,4.129,0,0,0,7.011,3.021,3.3,3.3,0,0,0,.879-2.126H56.807V21.984h5.087A4.515,4.515,0,0,1,61.968,22.777Z" transform="translate(21.014 -4.851)" fill="none" stroke="#fff" stroke-miterlimit="10" stroke-width="0.2"/>
          <path id="パス_82530" data-name="パス 82530" d="M64.655,18.29H59.874v3.329h4.312V22.88H59.874v3.328h4.781V27.5h-6.13V17h6.13Z" transform="translate(26.394 -4.75)" fill="#fff"/>
          <path id="パス_82531" data-name="パス 82531" d="M64.655,18.29H59.874v3.329h4.312V22.88H59.874v3.328h4.781V27.5h-6.13V17h6.13Z" transform="translate(26.394 -4.75)" fill="none" stroke="#fff" stroke-miterlimit="10" stroke-width="0.2"/>
          <path id="パス_82532" data-name="パス 82532" d="M67.114,27.5H65.765V18.29H62.832V17h7.215v1.29H67.114Z" transform="translate(29.624 -4.75)" fill="#fff"/>
          <path id="パス_82533" data-name="パス 82533" d="M67.114,27.5H65.765V18.29H62.832V17h7.215v1.29H67.114Z" transform="translate(29.624 -4.75)" fill="none" stroke="#fff" stroke-miterlimit="10" stroke-width="0.2"/>
          <rect id="長方形_12818" data-name="長方形 12818" width="1.349" height="10.5" transform="translate(104.891 12.25)" fill="#fff"/>
          <rect id="長方形_12819" data-name="長方形 12819" width="1.349" height="10.5" transform="translate(104.891 12.25)" fill="none" stroke="#fff" stroke-miterlimit="10" stroke-width="0.2"/>
          <path id="パス_82534" data-name="パス 82534" d="M75.964,27.5H74.614V18.29H71.681V17H78.9v1.29H75.964Z" transform="translate(36.261 -4.75)" fill="#fff"/>
          <path id="パス_82535" data-name="パス 82535" d="M75.964,27.5H74.614V18.29H71.681V17H78.9v1.29H75.964Z" transform="translate(36.261 -4.75)" fill="none" stroke="#fff" stroke-miterlimit="10" stroke-width="0.2"/>
          <path id="パス_82536" data-name="パス 82536" d="M87.571,26.243a5.448,5.448,0,0,1-7.7,0,5.365,5.365,0,0,1-1.547-3.892,5.369,5.369,0,0,1,1.547-3.894,5.431,5.431,0,0,1,7.691.007,5.368,5.368,0,0,1,1.554,3.887,5.372,5.372,0,0,1-1.547,3.892m-6.7-.878a4.039,4.039,0,0,0,5.705,0,4.112,4.112,0,0,0,1.167-3.014,4.109,4.109,0,0,0-1.167-3.013,4.035,4.035,0,0,0-5.705,0A4.115,4.115,0,0,0,79.7,22.351a4.118,4.118,0,0,0,1.165,3.014" transform="translate(41.244 -4.851)" fill="#fff"/>
          <path id="パス_82537" data-name="パス 82537" d="M87.571,26.243a5.448,5.448,0,0,1-7.7,0,5.365,5.365,0,0,1-1.547-3.892,5.369,5.369,0,0,1,1.547-3.894,5.431,5.431,0,0,1,7.691.007,5.368,5.368,0,0,1,1.554,3.887A5.372,5.372,0,0,1,87.571,26.243Zm-6.7-.878a4.039,4.039,0,0,0,5.705,0,4.112,4.112,0,0,0,1.167-3.014,4.109,4.109,0,0,0-1.167-3.013,4.035,4.035,0,0,0-5.705,0A4.115,4.115,0,0,0,79.7,22.351,4.118,4.118,0,0,0,80.869,25.365Z" transform="translate(41.244 -4.851)" fill="none" stroke="#fff" stroke-miterlimit="10" stroke-width="0.2"/>
          <path id="パス_82538" data-name="パス 82538" d="M85.575,27.5V17h1.642l5.1,8.167h.059l-.059-2.023V17h1.351V27.5H92.262l-5.339-8.564h-.058l.058,2.025V27.5Z" transform="translate(46.681 -4.75)" fill="#fff"/>
          <path id="パス_82539" data-name="パス 82539" d="M85.575,27.5V17h1.642l5.1,8.167h.059l-.059-2.023V17h1.351V27.5H92.262l-5.339-8.564h-.058l.058,2.025V27.5Z" transform="translate(46.681 -4.75)" fill="none" stroke="#fff" stroke-miterlimit="10" stroke-width="0.2"/>
          <path id="パス_82540" data-name="パス 82540" d="M98.456,35.281a7.443,7.443,0,1,0,7.471,7.443,7.336,7.336,0,0,0-7.471-7.443m0,11.952a4.306,4.306,0,0,1-4.2-4.51,4.212,4.212,0,1,1,8.4,0,4.3,4.3,0,0,1-4.2,4.51m-16.3-11.952a7.443,7.443,0,1,0,7.471,7.443,7.336,7.336,0,0,0-7.471-7.443m0,11.952a4.306,4.306,0,0,1-4.2-4.51,4.212,4.212,0,1,1,8.4,0,4.306,4.306,0,0,1-4.2,4.51M62.771,37.564v3.157h7.555A6.589,6.589,0,0,1,68.607,44.7a7.736,7.736,0,0,1-5.836,2.313,8.4,8.4,0,0,1,0-16.8,8.05,8.05,0,0,1,5.694,2.256l2.228-2.228a11.017,11.017,0,0,0-7.922-3.187,11.561,11.561,0,1,0,0,23.119,10.569,10.569,0,0,0,8.062-3.243,10.426,10.426,0,0,0,2.735-7.387,10.2,10.2,0,0,0-.17-1.972Zm79.289,2.452a6.918,6.918,0,0,0-6.372-4.735,7.072,7.072,0,0,0-7.019,7.443,7.283,7.283,0,0,0,7.385,7.443,7.4,7.4,0,0,0,6.2-3.3l-2.538-1.692a4.25,4.25,0,0,1-3.666,2.058,3.788,3.788,0,0,1-3.609-2.254l9.952-4.118ZM131.909,42.5a4.083,4.083,0,0,1,3.89-4.342,2.879,2.879,0,0,1,2.763,1.579Zm-8.09,7.217h3.271V27.836h-3.271Zm-5.357-12.771h-.114a5.159,5.159,0,0,0-3.918-1.662,7.449,7.449,0,0,0,0,14.885,5.071,5.071,0,0,0,3.918-1.692h.114v1.073c0,2.847-1.523,4.37-3.976,4.37a4.119,4.119,0,0,1-3.75-2.651l-2.847,1.185a7.092,7.092,0,0,0,6.6,4.4c3.834,0,7.077-2.256,7.077-7.752V35.73h-3.1Zm-3.75,10.29a4.27,4.27,0,0,1-4.144-4.482,4.305,4.305,0,0,1,4.144-4.54c2.228,0,3.974,1.918,3.974,4.54,0,2.594-1.746,4.482-3.974,4.482m42.667-19.4h-7.824V49.715h3.264V41.427h4.561a6.8,6.8,0,1,0,0-13.589m.084,10.544h-4.645v-7.5h4.645a3.75,3.75,0,1,1,0,7.5m20.181-3.141a6.128,6.128,0,0,0-5.826,3.35l2.9,1.209a3.1,3.1,0,0,1,2.984-1.6c1.689,0,3.405,1.013,3.433,2.816v.224a7.223,7.223,0,0,0-3.405-.843c-3.124,0-6.305,1.717-6.305,4.924,0,2.928,2.562,4.814,5.432,4.814a4.605,4.605,0,0,0,4.167-2.14h.112v1.689h3.152V41.29c0-3.883-2.9-6.05-6.641-6.05M177.25,47.23c-1.071,0-2.562-.534-2.562-1.858,0-1.687,1.857-2.335,3.462-2.335a5.821,5.821,0,0,1,2.984.732,3.958,3.958,0,0,1-3.883,3.461m18.519-11.512L192.025,45.2h-.112l-3.885-9.485h-3.518l5.826,13.256-3.32,7.374h3.4L199.4,35.718Zm-29.412,14h3.266V27.838h-3.266Z" transform="translate(20.781 2.785)" fill="#fff"/>
          <path id="パス_82541" data-name="パス 82541" d="M38.7,29.424,20.07,49.2l0,.012a5.036,5.036,0,0,0,7.413,3.034l.059-.035,20.972-12.1Z" transform="translate(-2.448 4.568)" fill="#ea4335"/>
          <path id="パス_82542" data-name="パス 82542" d="M49.748,29.754l-.017-.012-9.054-5.248-10.2,9.077L40.712,43.805l9.006-5.2a5.036,5.036,0,0,0,.03-8.855" transform="translate(5.356 0.87)" fill="#fbbc04"/>
          <path id="パス_82543" data-name="パス 82543" d="M20.144,19.277a4.94,4.94,0,0,0-.172,1.295V55.516a4.846,4.846,0,0,0,.173,1.293L39.416,37.54Z" transform="translate(-2.521 -3.042)" fill="#4285f4"/>
          <path id="パス_82544" data-name="パス 82544" d="M38.84,39.646l9.642-9.641L27.536,17.86a5.041,5.041,0,0,0-7.464,3.013l0,.005Z" transform="translate(-2.448 -4.644)" fill="#34a853"/>
        </g>
      </g>
    </g>
  </g>
</svg>
